<svg width="562" height="342" viewBox="0 0 562 342" fill="none" xmlns="http://www.w3.org/2000/svg">
<g clip-path="url(#clip0_116_437)">
<path d="M352.382 331.436C356.274 329.251 361.27 329.17 365.234 331.225C369.198 333.281 372.009 337.407 372.464 341.851C364.259 341.851 356.176 339.942 352.382 331.436Z" fill="#D64923"/>
<path d="M361.944 323.037C367.436 324.832 373.797 323.695 378.313 320.088C382.83 316.489 385.365 310.543 384.837 304.791C374.422 306.83 364.633 311.29 361.944 323.037Z" fill="#D64923"/>
<path d="M326.224 336.912C326.224 336.912 326.395 336.83 326.736 336.709C327.118 336.579 327.613 336.408 328.231 336.205C329.539 335.782 331.423 335.165 333.738 334.361C338.369 332.76 344.73 330.437 351.586 327.448C355.006 325.945 358.231 324.417 361.115 322.955C363.991 321.469 366.542 320.047 368.63 318.772C370.701 317.464 372.35 316.367 373.398 315.49C374.47 314.645 374.998 314.092 375.031 314.133C375.039 314.141 374.917 314.279 374.657 314.539C374.397 314.791 374.04 315.189 373.496 315.62C372.464 316.538 370.831 317.683 368.776 319.023C366.696 320.339 364.162 321.794 361.286 323.296C358.402 324.783 355.177 326.327 351.749 327.829C344.876 330.819 338.491 333.11 333.828 334.637C331.496 335.409 329.595 335.977 328.279 336.351C327.654 336.53 327.15 336.668 326.76 336.782C326.411 336.879 326.224 336.92 326.224 336.904V336.912Z" fill="#E0E0E0"/>
<path d="M362.919 336.213C362.878 336.27 361.928 335.612 360.287 334.727C358.654 333.841 356.298 332.777 353.569 332.029C350.831 331.282 348.264 330.998 346.412 330.933C344.551 330.86 343.398 330.949 343.39 330.876C343.39 330.843 343.674 330.803 344.194 330.746C344.714 330.681 345.477 330.64 346.412 330.64C348.288 330.632 350.896 330.876 353.674 331.631C356.444 332.395 358.816 333.516 360.425 334.475C361.229 334.954 361.863 335.376 362.285 335.693C362.708 336.01 362.927 336.197 362.911 336.221L362.919 336.213Z" fill="#E0E0E0"/>
<path d="M169.389 299.689C167.415 304.961 168.26 311.2 171.583 315.75C174.905 320.299 180.584 323.012 186.205 322.728C184.646 312.5 180.714 302.792 169.389 299.689Z" fill="#D64923"/>
<path d="M167.789 294.669C167.854 294.653 168.139 295.79 168.724 297.569C169.308 299.348 170.259 301.769 171.607 304.295C172.964 306.814 174.451 308.942 175.612 310.421C176.774 311.899 177.562 312.76 177.505 312.809C177.481 312.825 177.27 312.63 176.888 312.265C176.506 311.899 175.986 311.33 175.377 310.616C174.15 309.178 172.599 307.049 171.234 304.498C169.869 301.948 168.959 299.478 168.439 297.658C168.179 296.749 168.001 296.001 167.903 295.481C167.806 294.961 167.757 294.669 167.789 294.669Z" fill="#E0E0E0"/>
<path d="M7.04632 94.6973C3.98371 102.862 5.29974 112.529 10.442 119.572C15.5843 126.615 24.3903 130.815 33.0989 130.384C30.6861 114.543 24.5934 99.5065 7.04632 94.6973Z" fill="#D64923"/>
<path d="M4.5605 86.9312C4.5605 86.9312 4.72298 87.3536 4.94231 88.1416C5.15353 88.9296 5.4866 90.0588 5.9334 91.4479C6.827 94.2181 8.28113 97.9793 10.377 101.895C12.4811 105.811 14.8044 109.109 16.6241 111.383C17.5258 112.521 18.2895 113.43 18.8256 114.04C19.3618 114.657 19.6461 115.006 19.6217 115.031C19.5974 115.047 19.2724 114.738 18.7038 114.153C18.127 113.577 17.3309 112.699 16.3885 111.578C14.5038 109.336 12.1236 106.046 10.0033 102.106C7.8912 98.158 6.46956 94.348 5.64907 91.5454C5.23477 90.14 4.94231 88.9946 4.77984 88.1903C4.60924 87.3861 4.52801 86.9474 4.5605 86.9393V86.9312Z" fill="#E0E0E0"/>
<path d="M34.4963 256.398C30.1095 259.932 27.6724 265.733 28.2167 271.338C28.761 276.943 32.2704 282.167 37.2583 284.791C41.1252 275.197 42.6768 264.839 34.5044 256.398" fill="#D64923"/>
<path d="M35.6662 251.264C35.7312 251.289 35.3981 252.402 35 254.238C34.602 256.074 34.1795 258.633 34.0577 261.492C33.944 264.352 34.1389 266.943 34.3908 268.803C34.6345 270.664 34.8782 271.809 34.8051 271.825C34.7807 271.825 34.6913 271.557 34.5532 271.045C34.4151 270.534 34.2527 269.786 34.0902 268.852C33.7652 266.992 33.5134 264.368 33.6353 261.476C33.7571 258.584 34.2283 255.992 34.7076 254.164C34.9432 253.247 35.1706 252.515 35.3493 252.02C35.5281 251.524 35.6418 251.248 35.6662 251.264Z" fill="#E0E0E0"/>
<path d="M185.255 50.984C190.292 53.4942 196.587 53.283 201.453 50.4478C206.319 47.6127 209.601 42.2348 209.894 36.6133C199.561 37.1169 189.504 40.0333 185.255 50.984Z" fill="#D64923"/>
<path d="M180.096 52.0564C180.088 51.9833 181.242 51.8289 183.078 51.4227C184.914 51.0247 187.416 50.3261 190.064 49.2456C192.712 48.157 194.979 46.8898 196.571 45.8905C198.163 44.8913 199.097 44.1927 199.138 44.2496C199.154 44.2739 198.943 44.4689 198.529 44.8101C198.123 45.1513 197.513 45.6062 196.733 46.1424C195.174 47.2147 192.899 48.5389 190.226 49.6437C187.546 50.7404 185.003 51.3984 183.134 51.7233C182.2 51.8858 181.445 51.9914 180.917 52.032C180.389 52.0808 180.096 52.0889 180.096 52.0645V52.0564Z" fill="#E0E0E0"/>
<path d="M164.198 49.5056C171.453 47.9458 177.773 42.5598 180.454 35.6385C183.134 28.7172 182.095 20.4798 177.781 14.4358C167.545 23.4449 159.568 34.7287 164.198 49.5056Z" fill="#D64923"/>
<path d="M159.771 54.8509C159.771 54.8509 159.998 54.5341 160.453 54.0142C160.916 53.5024 161.574 52.7388 162.354 51.7802C163.922 49.863 165.945 47.0928 167.789 43.7946C169.625 40.4883 170.917 37.312 171.721 34.9642C172.127 33.7944 172.428 32.8358 172.623 32.1697C172.826 31.5036 172.948 31.138 172.972 31.1461C172.996 31.1461 172.931 31.5279 172.777 32.2103C172.631 32.8927 172.371 33.8676 172.005 35.0536C171.274 37.4338 170.007 40.6589 168.163 43.9896C166.302 47.3203 164.231 50.0905 162.59 51.967C161.769 52.9094 161.079 53.6405 160.575 54.1279C160.08 54.6153 159.795 54.8753 159.771 54.8509Z" fill="#E0E0E0"/>
<path d="M230.836 327.789C232.372 330.811 235.483 332.972 238.854 333.354C242.226 333.735 245.743 332.314 247.904 329.706C242.738 326.229 236.824 324.02 230.836 327.781" fill="#D64923"/>
<path d="M227.961 326.457C228.026 326.335 230.471 327.756 233.81 328.601C237.14 329.47 239.967 329.397 239.967 329.527C239.967 329.576 239.269 329.665 238.123 329.633C236.978 329.609 235.402 329.438 233.704 329.007C232.014 328.569 230.544 327.959 229.529 327.44C228.513 326.912 227.936 326.505 227.961 326.457Z" fill="#E0E0E0"/>
<path d="M306.143 36.1178C308.231 38.7905 311.708 40.3096 315.087 40.0253C318.467 39.741 321.643 37.6776 323.26 34.6962C317.516 32.2916 311.293 31.2599 306.143 36.1097" fill="#D64923"/>
<path d="M303.064 35.3704C303.104 35.2404 305.777 36.1665 309.213 36.3452C312.65 36.5564 315.412 35.9309 315.436 36.069C315.444 36.1177 314.778 36.3371 313.649 36.532C312.52 36.727 310.935 36.8651 309.189 36.7676C307.442 36.6701 305.883 36.3533 304.786 36.0365C303.689 35.7197 303.039 35.4272 303.064 35.3785V35.3704Z" fill="#E0E0E0"/>
<path d="M501.305 61.1141C506.732 62.6088 512.865 61.2035 517.098 57.4909C521.322 53.7784 523.515 47.8726 522.735 42.3079C512.695 44.7774 503.385 49.5623 501.313 61.1222" fill="#D64923"/>
<path d="M496.447 63.1531C496.423 63.0881 497.528 62.7063 499.25 61.9589C500.972 61.2115 503.295 60.0498 505.684 58.482C508.072 56.906 510.054 55.2325 511.427 53.9409C512.792 52.6573 513.58 51.7962 513.629 51.8368C513.653 51.8531 513.474 52.0887 513.141 52.4948C512.808 52.9091 512.296 53.4778 511.63 54.1521C510.306 55.5006 508.332 57.239 505.911 58.8313C503.49 60.4154 501.118 61.5527 499.355 62.227C498.47 62.5682 497.747 62.8119 497.243 62.9581C496.731 63.1043 496.447 63.1693 496.439 63.1449L496.447 63.1531Z" fill="#E0E0E0"/>
<path d="M520.526 308.707C530.064 306.505 538.293 299.267 541.689 290.079C545.084 280.899 543.549 270.046 537.732 262.166C524.41 274.262 514.125 289.299 520.526 308.698" fill="#D64923"/>
<path d="M514.791 315.855C514.791 315.855 515.091 315.441 515.693 314.75C516.302 314.068 517.155 313.053 518.17 311.777C519.194 310.502 520.347 308.934 521.566 307.147C522.76 305.351 524.011 303.32 525.197 301.127C526.367 298.926 527.366 296.765 528.203 294.774C529.023 292.776 529.69 290.948 530.185 289.388C530.689 287.829 531.062 286.561 531.298 285.676C531.542 284.79 531.688 284.303 531.712 284.311C531.737 284.311 531.647 284.815 531.452 285.717C531.266 286.618 530.933 287.902 530.469 289.478C530.006 291.054 529.365 292.906 528.56 294.929C527.74 296.943 526.741 299.121 525.563 301.33C524.369 303.54 523.101 305.571 521.883 307.366C520.64 309.153 519.454 310.713 518.398 311.964C517.342 313.223 516.456 314.214 515.806 314.864C515.164 315.522 514.799 315.871 514.783 315.855H514.791Z" fill="#E0E0E0"/>
<path d="M438.756 308.525C439.868 300.865 434.561 293.755 426.902 292.643C419.243 291.532 412.132 296.839 411.021 304.498C409.909 312.157 415.216 319.267 422.875 320.379C430.534 321.491 437.645 316.184 438.756 308.525Z" fill="#002029"/>
<path d="M326.525 198.688C326.793 226.658 320.692 248.039 308.23 262.841C295.76 277.642 278.693 285.14 257.027 285.343C235.256 285.554 217.952 278.381 205.109 263.824C192.265 249.274 185.709 228.015 185.433 200.037L184.962 150.84C184.694 122.968 190.795 101.586 203.257 86.6875C215.718 71.7968 232.835 64.2418 254.606 64.0306C276.272 63.8194 293.535 71.0413 306.378 85.6964C319.222 100.351 325.785 121.611 326.054 149.483L326.525 198.68V198.688ZM290.098 144.325C289.928 126.713 286.849 113.699 280.862 105.299C274.875 96.8908 266.215 92.7477 254.89 92.8533C243.566 92.9589 235.012 97.2726 229.236 105.794C223.46 114.316 220.649 127.379 220.82 144.991L221.397 204.765C221.567 222.482 224.67 235.561 230.714 244.018C236.75 252.475 245.434 256.642 256.767 256.537C268.091 256.431 276.621 252.117 282.348 243.596C288.075 235.074 290.854 221.914 290.683 204.099L290.106 144.325H290.098Z" fill="#002029"/>
<path d="M347.208 198.493C347.476 226.463 341.375 247.844 328.913 262.646C316.444 277.447 299.376 284.945 277.71 285.148C255.939 285.359 238.635 278.186 225.792 263.628C212.948 249.079 206.393 227.819 206.116 199.842L205.645 150.645C205.377 122.773 211.478 101.391 223.94 86.4924C236.401 71.6018 253.518 64.0468 275.289 63.8356C296.955 63.6243 314.218 70.8463 327.061 85.5013C339.905 100.156 346.469 121.416 346.737 149.288L347.208 198.485V198.493ZM310.781 144.13C310.611 126.518 307.532 113.504 301.545 105.104C295.558 96.6957 286.898 92.5526 275.574 92.6582C264.249 92.7639 255.695 97.0775 249.919 105.599C244.143 114.121 241.332 127.184 241.503 144.796L242.08 204.57C242.25 222.287 245.354 235.366 251.398 243.823C257.433 252.28 266.118 256.447 277.45 256.342C288.774 256.236 297.304 251.922 303.031 243.401C308.759 234.879 311.537 221.719 311.366 203.903L310.79 144.13H310.781Z" fill="#002029"/>
<path d="M205.8 153.578C205.84 153.683 201.039 155.592 195.077 157.834C189.114 160.076 184.24 161.807 184.199 161.693C184.158 161.587 188.959 159.678 194.93 157.436C200.893 155.194 205.767 153.464 205.808 153.578H205.8Z" fill="#002029"/>
<path d="M206.994 173.017C207.035 173.123 202.234 175.032 196.271 177.274C190.3 179.516 185.434 181.247 185.393 181.133C185.353 181.027 190.154 179.118 196.125 176.876C202.087 174.634 206.962 172.904 207.002 173.017H206.994Z" fill="#002029"/>
<path d="M208.188 192.457C208.229 192.563 203.427 194.472 197.465 196.714C191.494 198.956 186.628 200.687 186.587 200.573C186.547 200.467 191.348 198.558 197.319 196.316C203.281 194.074 208.155 192.344 208.196 192.457H208.188Z" fill="#002029"/>
<path d="M209.382 211.897C209.423 212.003 204.622 213.912 198.659 216.154C192.688 218.396 187.822 220.126 187.782 220.013C187.741 219.907 192.542 217.998 198.513 215.756C204.476 213.514 209.35 211.783 209.39 211.897H209.382Z" fill="#002029"/>
<path d="M210.576 231.337C210.576 231.337 210.324 231.491 209.829 231.702C209.341 231.914 208.627 232.206 207.749 232.555C205.986 233.262 203.533 234.205 200.82 235.228C198.106 236.252 195.637 237.153 193.842 237.779C192.948 238.096 192.217 238.348 191.713 238.51C191.209 238.673 190.925 238.754 190.909 238.721C190.901 238.697 191.161 238.567 191.656 238.356C192.144 238.145 192.859 237.852 193.736 237.503C195.499 236.796 197.952 235.854 200.665 234.83C203.379 233.806 205.848 232.905 207.635 232.279C208.529 231.962 209.26 231.711 209.764 231.548C210.268 231.386 210.552 231.304 210.568 231.337H210.576Z" fill="#002029"/>
<path d="M216.125 249.12C216.149 249.176 215.207 249.583 213.663 250.2C212.128 250.817 209.992 251.646 207.619 252.54C205.247 253.433 203.103 254.213 201.535 254.757C199.967 255.302 198.992 255.619 198.968 255.562C198.943 255.505 199.886 255.099 201.429 254.481C202.965 253.864 205.101 253.035 207.473 252.142C209.837 251.248 211.99 250.468 213.558 249.924C215.126 249.38 216.101 249.063 216.125 249.12Z" fill="#002029"/>
<path d="M228.01 265.432C228.034 265.489 227.197 265.854 225.824 266.415C224.46 266.967 222.551 267.706 220.446 268.503C218.334 269.299 216.417 269.989 215.02 270.477C213.623 270.964 212.753 271.232 212.729 271.175C212.705 271.118 213.541 270.753 214.914 270.192C216.279 269.64 218.188 268.901 220.292 268.105C222.404 267.308 224.321 266.618 225.719 266.13C227.116 265.643 227.985 265.375 228.01 265.432Z" fill="#002029"/>
<path d="M247.758 276.131C247.783 276.188 246.946 276.553 245.573 277.114C244.2 277.674 242.299 278.405 240.195 279.202C238.083 279.998 236.166 280.688 234.768 281.176C233.371 281.663 232.502 281.931 232.478 281.874C232.453 281.817 233.29 281.452 234.663 280.891C236.028 280.339 237.937 279.6 240.041 278.804C242.153 278.007 244.07 277.317 245.467 276.829C246.865 276.342 247.734 276.074 247.758 276.131Z" fill="#002029"/>
<path d="M307.321 234.652C307.369 234.757 301.204 237.633 293.551 241.077C285.899 244.522 279.652 247.219 279.603 247.113C279.554 247.008 285.72 244.132 293.372 240.688C301.025 237.243 307.272 234.546 307.321 234.652Z" fill="#002029"/>
<path d="M311.366 217.99C311.415 218.095 306.321 220.492 300.001 223.335C293.673 226.178 288.506 228.396 288.457 228.29C288.409 228.185 293.502 225.788 299.83 222.945C306.159 220.102 311.325 217.884 311.374 217.99H311.366Z" fill="#002029"/>
<path d="M313.226 199.281C313.275 199.387 308.182 201.783 301.861 204.626C295.533 207.47 290.366 209.687 290.318 209.582C290.269 209.476 295.363 207.08 301.691 204.236C308.019 201.393 313.186 199.175 313.235 199.281H313.226Z" fill="#002029"/>
<path d="M315.087 180.572C315.135 180.678 310.042 183.075 303.722 185.918C297.393 188.761 292.227 190.979 292.178 190.873C292.129 190.768 297.223 188.371 303.551 185.528C309.88 182.685 315.046 180.467 315.095 180.572H315.087Z" fill="#002029"/>
<path d="M316.955 161.855C317.004 161.961 311.911 164.358 305.59 167.201C299.262 170.044 294.095 172.262 294.047 172.156C293.998 172.051 299.092 169.654 305.42 166.811C311.748 163.968 316.915 161.75 316.964 161.855H316.955Z" fill="#002029"/>
<path d="M313.226 145.194C313.275 145.3 308.182 147.696 301.861 150.539C295.533 153.383 290.366 155.6 290.318 155.495C290.269 155.389 295.363 152.993 301.691 150.149C308.019 147.306 313.186 145.088 313.235 145.194H313.226Z" fill="#002029"/>
<path d="M313.226 127.257C313.275 127.362 308.182 129.759 301.861 132.602C295.533 135.445 290.366 137.663 290.318 137.558C290.269 137.452 295.363 135.055 301.691 132.212C308.019 129.369 313.186 127.151 313.235 127.257H313.226Z" fill="#002029"/>
<path d="M311.366 110.368C311.415 110.473 306.321 112.87 300.001 115.713C293.673 118.557 288.506 120.774 288.457 120.669C288.409 120.563 293.502 118.167 299.83 115.323C306.159 112.48 311.325 110.262 311.374 110.368H311.366Z" fill="#002029"/>
<path d="M295.322 98.6048C295.371 98.7104 292.292 100.197 288.442 101.927C284.591 103.658 281.431 104.974 281.39 104.868C281.341 104.763 284.42 103.276 288.271 101.546C292.122 99.8152 295.274 98.4992 295.322 98.6048Z" fill="#002029"/>
<path d="M286.744 91.3909C286.792 91.4966 283.714 92.9832 279.863 94.7135C276.012 96.4439 272.852 97.7599 272.812 97.6543C272.763 97.5487 275.842 96.062 279.692 94.3317C283.543 92.6014 286.695 91.2853 286.744 91.3909Z" fill="#002029"/>
<path d="M206.717 130.011C206.758 130.116 201.957 132.025 195.994 134.267C190.023 136.51 185.157 138.24 185.116 138.126C185.076 138.012 189.877 136.112 195.848 133.869C201.811 131.627 206.685 129.897 206.725 130.011H206.717Z" fill="#002029"/>
<path d="M212.697 105.77C212.737 105.876 207.53 107.939 201.064 110.368C194.597 112.797 189.325 114.682 189.284 114.568C189.244 114.462 194.451 112.399 200.917 109.97C207.384 107.541 212.656 105.656 212.697 105.77Z" fill="#002029"/>
<path d="M228.318 81.7727C228.359 81.8783 221.755 84.4616 213.566 87.5405C205.377 90.6193 198.708 93.0239 198.667 92.9102C198.627 92.8046 205.231 90.2213 213.42 87.1424C221.608 84.0635 228.278 81.6589 228.318 81.7727Z" fill="#002029"/>
<path d="M131.476 208.884L158.633 210.07L157.374 238.852L130.217 237.666L128.129 285.489L92.4094 283.93L94.4972 236.106L2.24512 232.076L2.31823 210.159L100.614 68.97L137.512 70.5784L131.476 208.884ZM38.046 204.805L95.7564 207.324L99.5664 120.092L98.6971 119.759L95.4721 125.974L38.0541 204.805H38.046Z" fill="#002029"/>
<path d="M154.19 209.874L181.347 211.061L180.088 239.843L152.931 238.657L150.843 286.48L115.123 284.921L117.211 237.097L24.9587 233.067L25.0319 211.15L123.328 69.9609L160.226 71.5694L154.19 209.874ZM60.7596 205.796L118.47 208.315L122.28 121.083L121.411 120.75L118.186 126.965L60.7678 205.796H60.7596Z" fill="#002029"/>
<path d="M25.4868 215.318C25.4868 215.318 25.1862 215.521 24.6095 215.813C24.0327 216.106 23.1878 216.512 22.1399 217.007C20.044 217.99 17.1276 219.298 13.8781 220.671C10.6287 222.044 7.65541 223.222 5.4864 224.042C4.40595 224.449 3.5286 224.774 2.9112 224.985C2.30193 225.196 1.95261 225.302 1.94449 225.269C1.93636 225.245 2.25319 225.082 2.85434 224.83C3.5286 224.546 4.37346 224.189 5.38079 223.766C7.59854 222.84 10.4987 221.63 13.7156 220.281C16.9164 218.916 19.8084 217.674 22.018 216.731C23.0172 216.309 23.8621 215.951 24.5363 215.667C25.1375 215.423 25.4706 215.301 25.4868 215.326V215.318Z" fill="#002029"/>
<path d="M38.7121 190.995C38.7121 190.995 38.2896 191.247 37.4854 191.645C36.6812 192.035 35.5195 192.579 34.0735 193.245C31.1815 194.57 27.1521 196.332 22.676 198.225C18.1999 200.118 14.1299 201.775 11.1648 202.929C9.6863 203.506 8.47587 203.96 7.63914 204.261C6.8024 204.562 6.33123 204.716 6.32311 204.683C6.31498 204.659 6.76178 204.448 7.58227 204.107C8.46775 203.733 9.63755 203.246 11.0511 202.644C14.0487 201.385 18.0618 199.696 22.5054 197.827C26.9409 195.942 30.954 194.236 33.9435 192.969C35.357 192.368 36.5268 191.872 37.4123 191.499C38.2328 191.158 38.6877 190.979 38.704 191.003L38.7121 190.995Z" fill="#002029"/>
<path d="M54.8538 169.305C54.8538 169.305 54.407 169.565 53.5703 169.955C52.7335 170.345 51.515 170.897 50.004 171.555C46.982 172.88 42.7739 174.642 38.111 176.535C33.4399 178.428 29.1912 180.085 26.1042 181.239C24.5607 181.816 23.3016 182.271 22.4323 182.571C21.5631 182.872 21.0757 183.026 21.0594 182.994C21.0513 182.969 21.5144 182.758 22.3755 182.417C23.2934 182.043 24.5201 181.556 25.9986 180.954C29.1181 179.695 33.318 178.006 37.9566 176.137C42.5871 174.252 46.7789 172.547 49.8902 171.279C51.3687 170.678 52.5873 170.183 53.5053 169.809C54.3582 169.46 54.8375 169.289 54.8538 169.313V169.305Z" fill="#002029"/>
<path d="M119.51 194.359C119.51 194.359 119.209 194.554 118.624 194.838C118.048 195.122 117.203 195.512 116.147 195.983C114.051 196.934 111.126 198.193 107.869 199.517C104.611 200.833 101.63 201.962 99.4688 202.742C98.3884 203.132 97.5029 203.441 96.8936 203.636C96.2843 203.839 95.935 203.936 95.9269 203.904C95.9188 203.871 96.2437 203.725 96.8368 203.482C97.511 203.205 98.364 202.864 99.3632 202.458C101.589 201.573 104.497 200.403 107.714 199.119C110.923 197.803 113.823 196.617 116.033 195.707C117.04 195.301 117.885 194.96 118.559 194.684C119.161 194.448 119.494 194.334 119.51 194.359Z" fill="#002029"/>
<path d="M116.878 238.982C116.878 238.982 116.586 239.177 116.025 239.461C115.464 239.745 114.644 240.135 113.629 240.606C111.598 241.557 108.762 242.816 105.602 244.132C102.442 245.448 99.5584 246.577 97.4543 247.357C96.4064 247.747 95.5453 248.056 94.9523 248.259C94.3592 248.462 94.0262 248.559 94.0099 248.535C94.0018 248.511 94.3105 248.356 94.8873 248.113C95.5453 247.836 96.3658 247.495 97.3406 247.089C99.5015 246.195 102.32 245.034 105.44 243.75C108.543 242.434 111.354 241.248 113.507 240.338C114.473 239.932 115.294 239.591 115.96 239.315C116.545 239.079 116.87 238.965 116.878 238.99V238.982Z" fill="#002029"/>
<path d="M116.504 254.628C116.504 254.628 116.212 254.823 115.651 255.107C115.091 255.392 114.27 255.781 113.255 256.253C111.224 257.203 108.389 258.462 105.229 259.778C102.068 261.094 99.1845 262.224 97.0805 263.003C96.0326 263.393 95.1715 263.702 94.5784 263.905C93.9854 264.108 93.6523 264.206 93.6361 264.181C93.6198 264.157 93.9367 264.003 94.5134 263.759C95.1715 263.483 95.9919 263.142 96.9668 262.735C99.1277 261.842 101.947 260.68 105.066 259.397C108.169 258.08 110.98 256.894 113.133 255.985C114.1 255.578 114.92 255.237 115.586 254.961C116.171 254.725 116.496 254.612 116.504 254.636V254.628Z" fill="#002029"/>
<path d="M116.13 270.266C116.13 270.266 115.838 270.461 115.277 270.745C114.717 271.029 113.896 271.419 112.881 271.891C110.85 272.841 108.015 274.1 104.855 275.416C101.695 276.732 98.8108 277.861 96.7068 278.641C95.6588 279.031 94.7977 279.34 94.2047 279.543C93.6117 279.746 93.2786 279.844 93.2624 279.819C93.2542 279.795 93.5629 279.641 94.1397 279.397C94.7977 279.121 95.6182 278.779 96.5931 278.373C98.7539 277.48 101.573 276.318 104.692 275.034C107.796 273.718 110.606 272.532 112.759 271.623C113.726 271.216 114.546 270.875 115.212 270.599C115.797 270.363 116.122 270.25 116.13 270.274V270.266Z" fill="#002029"/>
<path d="M119.932 177.827C119.932 177.827 119.632 178.022 119.047 178.306C118.47 178.591 117.625 178.981 116.569 179.452C114.473 180.402 111.549 181.661 108.291 182.985C105.033 184.302 102.052 185.431 99.8912 186.211C98.8107 186.601 97.9253 186.909 97.316 187.104C96.7067 187.307 96.3574 187.405 96.3493 187.372C96.3411 187.34 96.6661 187.194 97.2591 186.95C97.9334 186.674 98.7864 186.332 99.7856 185.926C102.011 185.041 104.92 183.871 108.137 182.587C111.346 181.271 114.246 180.085 116.455 179.175C117.463 178.769 118.307 178.428 118.982 178.152C119.583 177.916 119.916 177.803 119.932 177.827Z" fill="#002029"/>
<path d="M120.355 161.303C120.355 161.303 120.054 161.498 119.469 161.783C118.893 162.067 118.048 162.457 116.992 162.928C114.896 163.878 111.971 165.138 108.714 166.462C105.456 167.778 102.475 168.907 100.314 169.687C99.2333 170.077 98.3479 170.386 97.7386 170.58C97.1293 170.784 96.78 170.881 96.7719 170.849C96.7638 170.824 97.0887 170.67 97.6817 170.426C98.356 170.15 99.209 169.809 100.208 169.403C102.434 168.517 105.342 167.347 108.559 166.064C111.768 164.748 114.668 163.562 116.878 162.652C117.885 162.246 118.73 161.904 119.404 161.628C120.006 161.393 120.339 161.279 120.355 161.303Z" fill="#002029"/>
<path d="M120.777 144.78C120.777 144.78 120.493 144.967 119.94 145.235C119.388 145.503 118.584 145.877 117.585 146.332C115.586 147.233 112.808 148.444 109.705 149.703C106.601 150.962 103.758 152.026 101.695 152.765C100.663 153.139 99.8263 153.423 99.2414 153.618C98.6565 153.805 98.3315 153.903 98.3234 153.87C98.3153 153.846 98.624 153.7 99.1845 153.464C99.8344 153.204 100.639 152.871 101.589 152.489C103.718 151.644 106.48 150.531 109.542 149.313C112.589 148.062 115.351 146.925 117.463 146.055C118.413 145.674 119.217 145.34 119.867 145.08C120.436 144.861 120.761 144.747 120.769 144.772L120.777 144.78Z" fill="#002029"/>
<path d="M122.646 129.337C122.686 129.442 120.867 130.222 118.576 131.075C116.285 131.92 114.4 132.521 114.36 132.416C114.319 132.31 116.139 131.53 118.43 130.677C120.72 129.832 122.605 129.231 122.646 129.337Z" fill="#002029"/>
<path d="M70.9629 146.811C70.9629 146.811 70.5161 147.071 69.6794 147.461C68.8427 147.851 67.6241 148.403 66.1131 149.061C63.0911 150.385 58.8831 152.148 54.2201 154.041C49.549 155.934 45.3003 157.591 42.2133 158.744C40.6699 159.321 39.4107 159.776 38.5415 160.077C37.6722 160.377 37.1848 160.532 37.1686 160.499C37.1604 160.475 37.6235 160.264 38.4846 159.922C39.4026 159.549 40.6292 159.061 42.1077 158.46C45.2272 157.201 49.4271 155.511 54.0657 153.643C58.6962 151.758 62.888 150.052 65.9994 148.785C67.4779 148.184 68.6964 147.688 69.6144 147.314C70.4674 146.965 70.9467 146.795 70.9629 146.819V146.811Z" fill="#002029"/>
<path d="M87.0801 124.325C87.0801 124.325 86.6333 124.585 85.7966 124.975C84.9598 125.365 83.7413 125.917 82.2303 126.575C79.2083 127.899 75.0002 129.662 70.3373 131.555C65.6662 133.448 61.4175 135.105 58.3305 136.258C56.787 136.835 55.5279 137.29 54.6586 137.591C53.7894 137.891 53.302 138.046 53.2857 138.013C53.2776 137.989 53.7407 137.777 54.6018 137.436C55.5197 137.063 56.7464 136.575 58.2249 135.974C61.3444 134.715 65.5443 133.025 70.1829 131.157C74.8134 129.272 79.0052 127.566 82.1166 126.299C83.5951 125.698 84.8136 125.202 85.7316 124.828C86.5846 124.479 87.0639 124.308 87.0801 124.333V124.325Z" fill="#002029"/>
<path d="M101.971 101.83C101.971 101.83 101.524 102.09 100.688 102.48C99.8508 102.87 98.6322 103.422 97.1212 104.08C94.0992 105.404 89.8912 107.167 85.2282 109.06C80.5571 110.953 76.3084 112.61 73.2215 113.764C71.678 114.34 70.4188 114.795 69.5496 115.096C68.6803 115.397 68.1929 115.551 68.1767 115.518C68.1604 115.486 68.6316 115.283 69.4927 114.942C70.4107 114.568 71.6374 114.081 73.1159 113.479C76.2353 112.22 80.4353 110.53 85.0739 108.662C89.7043 106.777 93.8961 105.071 97.0075 103.804C98.486 103.203 99.7045 102.707 100.623 102.334C101.475 101.984 101.955 101.814 101.971 101.838V101.83Z" fill="#002029"/>
<path d="M117.471 80.2051C117.471 80.2051 117.024 80.465 116.187 80.855C115.351 81.2449 114.132 81.7973 112.621 82.4553C109.599 83.7795 105.391 85.5423 100.728 87.4351C96.0569 89.3279 91.8082 90.9851 88.7212 92.1387C87.1777 92.7155 85.9186 93.1704 85.0493 93.471C84.1801 93.7716 83.6927 93.9259 83.6764 93.8934C83.6602 93.8609 84.1314 93.6578 84.9925 93.3166C85.9104 92.943 87.1371 92.4555 88.6156 91.8544C91.7351 90.5952 95.935 88.9055 100.574 87.0371C105.204 85.1524 109.396 83.4464 112.507 82.1791C113.986 81.578 115.204 81.0824 116.122 80.7087C116.975 80.3594 117.455 80.1888 117.471 80.2132V80.2051Z" fill="#002029"/>
<path d="M484.253 209.216L511.305 206.568L514.108 235.236L487.056 237.885L491.719 285.522L456.137 288.999L451.474 241.362L359.571 250.346L356.558 228.64L434.017 75.0299L470.776 71.4312L484.253 209.208V209.216ZM391.181 218.323L448.672 212.701L440.174 125.803L439.264 125.6L436.941 132.212L391.181 218.331V218.323Z" fill="#002029"/>
<path d="M506.878 207.007L533.929 204.358L536.732 233.027L509.68 235.675L514.343 283.312L478.762 286.789L474.099 239.152L382.196 248.137L379.182 226.43L456.641 72.8204L493.401 69.2297L506.878 207.007ZM413.805 216.113L471.296 210.492L462.799 123.593L461.889 123.382L459.566 129.995L413.805 216.113Z" fill="#002029"/>
<path d="M380.222 230.5C380.222 230.5 379.954 230.744 379.418 231.109C378.89 231.483 378.11 232.003 377.143 232.637C375.21 233.904 372.505 235.61 369.483 237.429C366.453 239.249 363.683 240.833 361.652 241.946C360.636 242.507 359.816 242.945 359.239 243.238C358.662 243.53 358.337 243.685 358.321 243.66C358.305 243.636 358.605 243.433 359.158 243.1C359.783 242.726 360.571 242.247 361.505 241.694C363.569 240.468 366.274 238.859 369.263 237.072C372.237 235.269 374.934 233.636 376.989 232.393C377.923 231.832 378.703 231.361 379.337 230.979C379.897 230.654 380.214 230.484 380.23 230.508L380.222 230.5Z" fill="#002029"/>
<path d="M389.89 204.553C389.89 204.553 389.508 204.862 388.768 205.366C388.029 205.861 386.957 206.568 385.617 207.429C382.936 209.143 379.199 211.458 375.04 213.96C370.872 216.462 367.078 218.672 364.308 220.24C362.919 221.02 361.79 221.645 361.01 222.06C360.222 222.474 359.783 222.693 359.767 222.669C359.751 222.645 360.165 222.376 360.929 221.922C361.749 221.426 362.846 220.776 364.162 219.988C366.948 218.323 370.693 216.081 374.828 213.611C378.955 211.125 382.684 208.867 385.47 207.193C386.786 206.397 387.875 205.747 388.695 205.244C389.459 204.789 389.89 204.545 389.906 204.569L389.89 204.553Z" fill="#002029"/>
<path d="M402.823 180.808C402.823 180.808 402.416 181.124 401.645 181.628C400.873 182.132 399.744 182.847 398.338 183.716C395.528 185.446 391.612 187.786 387.266 190.32C382.911 192.847 378.939 195.089 376.039 196.665C374.593 197.453 373.407 198.078 372.586 198.501C371.766 198.923 371.303 199.143 371.287 199.118C371.27 199.094 371.709 198.826 372.505 198.363C373.366 197.867 374.504 197.209 375.885 196.405C378.801 194.723 382.717 192.457 387.046 189.955C391.368 187.437 395.276 185.162 398.184 183.464C399.565 182.66 400.702 181.994 401.555 181.498C402.351 181.035 402.806 180.791 402.814 180.816L402.823 180.808Z" fill="#002029"/>
<path d="M470.362 196.519C470.362 196.519 470.086 196.755 469.558 197.112C469.022 197.469 468.242 197.981 467.267 198.599C465.317 199.833 462.604 201.491 459.566 203.262C456.528 205.024 453.733 206.56 451.702 207.64C450.687 208.176 449.858 208.607 449.281 208.891C448.705 209.176 448.38 209.322 448.363 209.297C448.347 209.273 448.648 209.078 449.2 208.745C449.834 208.38 450.622 207.925 451.556 207.38C453.628 206.186 456.349 204.626 459.355 202.896C462.344 201.141 465.049 199.557 467.113 198.347C468.047 197.803 468.835 197.348 469.469 196.974C470.029 196.657 470.346 196.495 470.362 196.519Z" fill="#002029"/>
<path d="M474.034 241.077C474.034 241.077 473.774 241.312 473.254 241.67C472.742 242.027 471.987 242.531 471.044 243.14C469.168 244.367 466.536 246.008 463.595 247.763C460.654 249.517 457.949 251.036 455.983 252.109C455 252.645 454.196 253.067 453.635 253.352C453.075 253.636 452.758 253.782 452.742 253.75C452.726 253.725 453.018 253.53 453.554 253.205C454.172 252.84 454.935 252.385 455.837 251.849C457.852 250.663 460.476 249.119 463.384 247.405C466.276 245.667 468.884 244.099 470.89 242.897C471.792 242.36 472.555 241.905 473.173 241.54C473.717 241.223 474.026 241.061 474.042 241.085L474.034 241.077Z" fill="#002029"/>
<path d="M475.862 256.618C475.862 256.618 475.602 256.853 475.082 257.211C474.57 257.568 473.815 258.072 472.873 258.681C470.996 259.908 468.364 261.549 465.423 263.303C462.482 265.058 459.777 266.577 457.811 267.65C456.828 268.186 456.024 268.608 455.464 268.892C454.903 269.177 454.586 269.323 454.57 269.291C454.554 269.258 454.846 269.071 455.382 268.746C456 268.381 456.763 267.926 457.665 267.39C459.68 266.204 462.304 264.66 465.212 262.946C468.104 261.208 470.712 259.64 472.718 258.437C473.62 257.901 474.384 257.446 475.001 257.081C475.545 256.764 475.854 256.601 475.87 256.626L475.862 256.618Z" fill="#002029"/>
<path d="M477.69 272.15C477.69 272.15 477.43 272.385 476.91 272.743C476.398 273.1 475.643 273.604 474.7 274.213C472.824 275.44 470.192 277.081 467.251 278.836C464.31 280.59 461.605 282.109 459.639 283.182C458.656 283.718 457.852 284.14 457.291 284.425C456.731 284.709 456.414 284.855 456.398 284.823C456.381 284.798 456.674 284.603 457.21 284.278C457.827 283.913 458.591 283.458 459.493 282.922C461.507 281.736 464.131 280.192 467.04 278.478C469.932 276.74 472.539 275.172 474.546 273.97C475.448 273.433 476.211 272.978 476.829 272.613C477.373 272.296 477.682 272.134 477.698 272.158L477.69 272.15Z" fill="#002029"/>
<path d="M468.453 180.101C468.453 180.101 468.177 180.337 467.649 180.694C467.113 181.051 466.333 181.563 465.358 182.181C463.408 183.415 460.695 185.073 457.657 186.844C454.619 188.606 451.824 190.142 449.793 191.222C448.778 191.758 447.949 192.189 447.372 192.473C446.795 192.758 446.47 192.904 446.454 192.88C446.438 192.855 446.739 192.66 447.291 192.327C447.925 191.962 448.713 191.499 449.647 190.962C451.718 189.768 454.44 188.208 457.446 186.478C460.435 184.723 463.14 183.139 465.204 181.929C466.138 181.385 466.926 180.93 467.56 180.556C468.12 180.239 468.437 180.077 468.453 180.101Z" fill="#002029"/>
<path d="M466.552 163.675C466.552 163.675 466.276 163.911 465.748 164.268C465.212 164.625 464.432 165.137 463.457 165.755C461.507 166.989 458.794 168.647 455.756 170.418C452.718 172.18 449.923 173.716 447.892 174.796C446.877 175.332 446.048 175.763 445.471 176.047C444.895 176.332 444.57 176.478 444.553 176.454C444.537 176.429 444.838 176.234 445.39 175.901C446.024 175.536 446.812 175.072 447.746 174.536C449.817 173.342 452.539 171.782 455.545 170.052C458.534 168.297 461.239 166.713 463.303 165.503C464.237 164.959 465.025 164.504 465.659 164.13C466.219 163.813 466.536 163.651 466.552 163.675Z" fill="#002029"/>
<path d="M464.643 147.257C464.643 147.257 464.383 147.484 463.88 147.826C463.368 148.167 462.629 148.654 461.702 149.247C459.85 150.425 457.267 152.009 454.375 153.691C451.475 155.373 448.818 156.827 446.877 157.85C445.91 158.362 445.114 158.768 444.562 159.036C444.009 159.304 443.701 159.443 443.684 159.418C443.668 159.394 443.952 159.207 444.48 158.89C445.09 158.541 445.837 158.102 446.731 157.582C448.713 156.445 451.304 154.958 454.164 153.317C457.007 151.652 459.574 150.141 461.548 148.979C462.434 148.467 463.189 148.029 463.798 147.671C464.335 147.371 464.635 147.216 464.651 147.241L464.643 147.257Z" fill="#002029"/>
<path d="M464.318 131.708C464.375 131.814 462.677 132.838 460.533 133.999C458.388 135.161 456.601 136.022 456.544 135.917C456.487 135.811 458.185 134.787 460.329 133.626C462.474 132.464 464.261 131.603 464.318 131.708Z" fill="#002029"/>
<path d="M415.609 156.274C415.609 156.274 415.203 156.591 414.431 157.095C413.659 157.599 412.53 158.313 411.124 159.183C408.314 160.913 404.398 163.253 400.052 165.787C395.698 168.314 391.725 170.556 388.825 172.132C387.379 172.92 386.193 173.545 385.372 173.968C384.552 174.39 384.089 174.609 384.073 174.585C384.056 174.561 384.495 174.293 385.291 173.83C386.152 173.334 387.29 172.676 388.671 171.872C391.587 170.19 395.503 167.924 399.833 165.422C404.154 162.903 408.062 160.629 410.97 158.931C412.351 158.127 413.488 157.46 414.341 156.965C415.138 156.502 415.592 156.258 415.601 156.283L415.609 156.274Z" fill="#002029"/>
<path d="M428.404 131.741C428.404 131.741 427.997 132.058 427.226 132.561C426.454 133.065 425.325 133.78 423.919 134.649C421.109 136.38 417.193 138.719 412.847 141.254C408.493 143.78 404.52 146.022 401.62 147.598C400.174 148.386 398.988 149.012 398.167 149.434C397.347 149.857 396.884 150.076 396.868 150.052C396.851 150.027 397.29 149.759 398.086 149.296C398.947 148.801 400.085 148.143 401.466 147.338C404.382 145.657 408.298 143.39 412.627 140.888C416.949 138.37 420.857 136.095 423.765 134.397C425.146 133.593 426.283 132.927 427.136 132.431C427.932 131.968 428.387 131.725 428.395 131.749L428.404 131.741Z" fill="#002029"/>
<path d="M439.988 107.378C439.988 107.378 439.582 107.695 438.81 108.199C438.038 108.702 436.909 109.417 435.504 110.286C432.693 112.017 428.777 114.356 424.431 116.891C420.077 119.417 416.105 121.66 413.204 123.236C411.758 124.024 410.572 124.649 409.752 125.071C408.931 125.494 408.468 125.713 408.452 125.689C408.436 125.665 408.875 125.396 409.671 124.933C410.532 124.438 411.669 123.78 413.05 122.976C415.966 121.294 419.882 119.027 424.212 116.525C428.534 114.007 432.441 111.732 435.349 110.035C436.73 109.23 437.868 108.564 438.721 108.069C439.517 107.606 439.972 107.362 439.98 107.386L439.988 107.378Z" fill="#002029"/>
<path d="M452.287 83.7871C452.287 83.7871 451.881 84.1039 451.109 84.6076C450.337 85.1113 449.208 85.8261 447.803 86.6954C444.992 88.4257 441.076 90.7653 436.73 93.2999C432.376 95.8263 428.403 98.0685 425.503 99.6445C424.057 100.432 422.871 101.058 422.051 101.48C421.23 101.903 420.767 102.122 420.751 102.098C420.735 102.073 421.173 101.805 421.969 101.342C422.831 100.847 423.968 100.189 425.349 99.3845C428.265 97.7029 432.181 95.4364 436.511 92.9343C440.833 90.416 444.74 88.1414 447.648 86.4435C449.029 85.6393 450.167 84.9732 451.02 84.4776C451.816 84.0146 452.271 83.7709 452.279 83.7952L452.287 83.7871Z" fill="#002029"/>
<path d="M345.957 150.832L340.27 149.946L305.038 138.581L284.428 132.627C279.611 130.961 273.372 130.384 266.597 133.837C256.865 138.801 230 163.797 230 163.797L249.342 183.741L240.228 224.099C250.423 253.084 270.383 256.407 270.383 256.407C270.383 256.407 283.494 257.585 298.978 251.679C317.516 244.611 336.972 228.047 339.409 220.923C340.871 216.649 342.074 207.665 343.041 197.518L372.383 185.56L380.336 144.966L345.949 150.832H345.957Z" fill="#D64923"/>
<path d="M303.096 222.677C303.096 222.677 303.007 222.775 302.812 222.929C302.609 223.075 302.333 223.319 301.935 223.571C301.155 224.107 299.969 224.806 298.409 225.464C295.322 226.796 290.505 227.795 285.395 226.69C280.285 225.569 276.321 222.653 274.07 220.151C272.925 218.9 272.137 217.771 271.658 216.958C271.398 216.56 271.252 216.227 271.13 216.008C271.016 215.788 270.959 215.667 270.975 215.658C271.008 215.642 271.276 216.089 271.796 216.869C272.316 217.649 273.136 218.737 274.29 219.948C276.564 222.36 280.48 225.179 285.484 226.276C290.488 227.365 295.224 226.43 298.295 225.187C299.847 224.57 301.049 223.92 301.845 223.433C302.641 222.945 303.072 222.645 303.096 222.677Z" fill="#263238"/>
<path d="M291.951 140.255C291.951 140.255 291.975 140.32 292.016 140.449C292.056 140.604 292.105 140.791 292.162 141.026C292.284 141.53 292.455 142.285 292.658 143.252C293.048 145.194 293.632 148.013 293.819 151.563C293.892 153.334 293.86 155.3 293.486 157.363C293.113 159.426 292.381 161.587 291.171 163.618C289.952 165.649 288.263 167.501 286.354 169.199C284.445 170.905 282.332 172.489 280.18 174.122C275.606 177.566 271.146 180.67 267.158 183.497C263.169 186.316 259.659 188.858 256.849 190.987L256.759 191.052L256.67 190.987C254.16 188.956 252.259 187.201 251.024 185.909C250.415 185.26 249.976 184.731 249.7 184.35C249.562 184.163 249.48 184.008 249.415 183.903C249.359 183.797 249.326 183.749 249.334 183.74C249.35 183.732 249.489 183.935 249.765 184.293C250.057 184.65 250.504 185.162 251.13 185.788C252.381 187.039 254.314 188.753 256.841 190.751H256.662C259.448 188.59 262.941 186.015 266.922 183.172C270.894 180.328 275.346 177.209 279.912 173.773C282.056 172.14 284.168 170.564 286.061 168.882C287.954 167.201 289.619 165.389 290.822 163.407C292.016 161.425 292.747 159.313 293.121 157.29C293.503 155.259 293.551 153.317 293.503 151.563C293.356 148.037 292.82 145.218 292.479 143.268C292.3 142.326 292.162 141.579 292.056 141.026C292.016 140.791 291.983 140.596 291.951 140.441C291.927 140.311 291.927 140.238 291.927 140.238L291.951 140.255Z" fill="#263238"/>
<path d="M444.943 158.541C453.197 151.474 455.983 138.744 451.45 128.865C447.575 128.467 443.7 128.069 439.825 127.663C445.723 124.568 449.281 117.525 448.274 110.937C442.01 117.695 431.165 119.694 422.904 115.608C417.477 112.927 413.074 107.931 407.111 106.883C401.701 105.932 396.38 108.467 391.197 110.311C386.022 112.155 379.743 113.171 375.453 109.734C372.05 107.013 371.002 102.236 371.221 97.89C371.44 93.5357 372.699 89.2952 372.968 84.949C373.496 76.4192 369.799 67.8244 363.552 62.0241C361.594 55.8339 356.907 50.4966 350.904 47.9621C343.641 44.8913 334.762 46.053 328.531 50.8784C325.989 52.8444 323.844 55.3871 320.96 56.8087C317.702 58.4172 313.917 58.4172 310.391 59.2864C306.865 60.1557 303.169 62.4871 302.787 66.1022L301.366 73.5028C301.13 74.0308 300.878 74.5589 300.586 75.0625C297.588 80.3185 291.463 83.7711 290.131 89.6688C289.383 92.9752 290.309 96.5577 289.197 99.7584C287.726 103.975 283.177 106.347 281.057 110.27C278.148 115.665 280.122 125.104 284.777 129.093C289.432 133.082 299.026 137.298 305.021 138.573C306.646 132.342 308.084 125.681 309.473 118.865C311.918 121.213 314.477 123.447 317.028 125.665C323.706 131.465 330.521 137.355 335.152 144.885C343.95 159.199 344.096 178.176 355.177 190.808C357.346 193.286 359.986 195.496 363.138 196.446C366.29 197.405 370.027 196.893 372.358 194.569C375.112 191.824 375.47 187.193 378.508 184.78C382.553 181.572 388.467 184.131 392.822 186.917C395.974 188.932 399.118 191.06 402.692 192.165C406.266 193.27 410.418 193.197 413.448 191.019C416.486 188.842 417.818 184.196 415.625 181.165C414.747 179.955 413.44 179.11 412.57 177.892C411.701 176.673 411.449 174.748 412.635 173.846C413.951 172.847 415.787 173.814 417.217 174.65C424.163 178.736 432.961 179.516 440.516 176.706C448.071 173.895 454.22 167.558 456.812 159.93C452.823 160.548 448.664 160.06 444.927 158.541H444.943Z" fill="#263238"/>
<path d="M437.705 94.7868C437.705 94.7868 438.095 95.0549 438.753 95.6886C439.395 96.3222 440.346 97.3052 441.142 98.8487C441.532 99.6204 441.873 100.538 442.035 101.586C442.182 102.626 442.125 103.828 441.637 104.982C441.166 106.127 440.346 107.249 439.143 108.012C438.542 108.386 437.844 108.67 437.096 108.751C436.341 108.841 435.553 108.719 434.822 108.418C431.808 107.192 430.297 103.707 427.031 102.155C423.855 100.473 419.793 100.36 415.885 101.253C411.937 102.155 408.184 104.267 404.333 106.428C400.499 108.573 396.405 110.904 391.701 111.708C389.378 112.131 386.981 112.163 384.715 111.66C383.586 111.392 382.497 110.994 381.482 110.457C380.474 109.913 379.564 109.214 378.752 108.435C377.144 106.85 376.014 104.901 375.251 102.894C374.479 100.888 374.057 98.8162 373.821 96.7853C373.391 92.7072 373.732 88.8322 373.772 85.2253C373.845 81.6265 373.634 78.239 372.789 75.2982C372.391 73.8278 371.847 72.4631 371.238 71.2283C370.637 69.9854 369.97 68.8724 369.272 67.8732C367.883 65.8748 366.412 64.3557 365.113 63.2427C363.821 62.1135 362.692 61.3987 361.936 60.9031C361.562 60.6838 361.27 60.5051 361.051 60.3832C360.856 60.2613 360.75 60.1964 360.758 60.1882C360.758 60.1882 360.872 60.237 361.075 60.3426C361.294 60.4644 361.595 60.6269 361.985 60.83C362.757 61.3093 363.902 61.9998 365.218 63.1209C366.542 64.2257 368.037 65.7367 369.459 67.7432C370.174 68.7424 370.864 69.8635 371.473 71.1145C372.099 72.3575 372.651 73.7303 373.074 75.217C373.951 78.1984 374.179 81.6103 374.122 85.2253C374.097 88.8403 373.772 92.7153 374.211 96.7365C374.447 98.7431 374.877 100.782 375.633 102.748C376.388 104.706 377.485 106.607 379.045 108.134C379.833 108.881 380.702 109.564 381.677 110.084C382.651 110.595 383.708 110.985 384.804 111.245C387.006 111.733 389.337 111.708 391.62 111.286C396.234 110.498 400.28 108.207 404.122 106.062C407.973 103.91 411.759 101.781 415.788 100.871C417.786 100.433 419.801 100.213 421.742 100.368C422.717 100.417 423.66 100.611 424.578 100.831C425.479 101.107 426.373 101.399 427.177 101.846C430.548 103.495 432.059 106.997 434.919 108.142C436.308 108.743 437.852 108.516 438.989 107.785C440.142 107.07 440.947 105.997 441.41 104.893C441.889 103.788 441.954 102.634 441.824 101.611C441.678 100.587 441.361 99.6854 440.979 98.9218C440.207 97.3945 439.29 96.3953 438.672 95.7454C438.355 95.4205 438.103 95.1849 437.933 95.0305C437.762 94.8762 437.673 94.795 437.681 94.7868H437.705Z" fill="#263238"/>
<path d="M304.908 141.676C304.908 141.676 304.875 141.555 304.843 141.311C304.802 141.067 304.77 140.702 304.624 140.247C304.38 139.329 303.819 137.996 302.625 136.624C301.415 135.275 299.611 133.902 297.239 132.879C294.883 131.806 291.967 131.278 288.758 130.669C285.582 130.043 281.934 129.385 278.669 127.208C275.46 125.039 272.893 121.351 272.235 117.005C271.569 112.683 272.966 107.825 276.28 104.373C279.643 100.92 284.396 99.2142 288.279 96.1759C289.237 95.3961 290.107 94.535 290.838 93.5764C291.52 92.5853 292.081 91.513 292.398 90.3594C293.039 88.0523 292.991 85.6396 293.21 83.2918C293.316 82.1139 293.494 80.9441 293.86 79.823C294.217 78.702 294.81 77.6622 295.574 76.7848C297.15 75.0545 299.319 74.1446 301.382 73.5516C303.47 72.9423 305.542 72.5686 307.508 72.0244C309.465 71.4801 311.309 70.7489 312.853 69.636C314.421 68.5637 315.721 67.2314 316.866 65.8829C318.011 64.5262 318.986 63.129 319.888 61.7723C321.683 59.0509 323.219 56.5163 324.852 54.4854C326.46 52.4382 328.093 50.8704 329.588 49.8062C331.082 48.7339 332.407 48.1652 333.324 47.8809C334.242 47.5884 334.746 47.5234 334.746 47.5234C334.746 47.5559 334.251 47.6453 333.349 47.9621C332.447 48.2708 331.139 48.8557 329.677 49.9362C328.207 51.0085 326.606 52.5763 325.03 54.6235C323.422 56.6544 321.911 59.189 320.132 61.9267C319.23 63.2914 318.255 64.7049 317.11 66.086C315.964 67.4589 314.648 68.8074 313.048 69.9203C311.472 71.0658 309.571 71.8294 307.597 72.3818C305.615 72.9342 303.543 73.316 301.48 73.9253C299.433 74.5183 297.353 75.4119 295.858 77.0529C295.143 77.8896 294.575 78.8645 294.234 79.9449C293.884 81.0172 293.714 82.1627 293.608 83.3243C293.389 85.6396 293.454 88.0767 292.787 90.4731C292.463 91.6673 291.878 92.7884 291.163 93.8201C290.407 94.8274 289.506 95.7048 288.531 96.5009C286.549 98.0525 284.371 99.2386 282.284 100.473C280.204 101.7 278.189 103 276.565 104.657C273.339 108.004 271.967 112.74 272.6 116.94C273.226 121.172 275.728 124.787 278.847 126.916C282.024 129.052 285.631 129.735 288.799 130.376C291.991 130.994 294.94 131.546 297.32 132.659C299.709 133.715 301.529 135.129 302.739 136.51C303.933 137.915 304.477 139.288 304.697 140.222C304.827 140.685 304.851 141.059 304.875 141.303C304.9 141.546 304.9 141.676 304.9 141.676H304.908Z" fill="#263238"/>
<path d="M369.767 68.7505C369.767 68.7505 369.539 68.718 369.141 68.588C368.743 68.4662 368.191 68.2387 367.517 67.93C366.168 67.3126 364.389 66.2647 362.667 64.7861C360.953 63.3076 359.645 61.6992 358.832 60.4644C358.426 59.847 358.126 59.3271 357.939 58.9534C357.752 58.5878 357.663 58.3766 357.687 58.3603C357.752 58.3278 358.207 59.1158 359.076 60.2938C359.937 61.4717 361.253 63.0152 362.935 64.4693C364.625 65.9153 366.347 66.9877 367.639 67.6619C368.93 68.3443 369.775 68.6774 369.751 68.7424L369.767 68.7505Z" fill="#D64923"/>
<path d="M396.778 124.162C396.778 124.162 396.266 124.04 395.348 123.837C394.431 123.634 393.082 123.431 391.409 123.349C389.727 123.276 387.729 123.349 385.503 123.52C383.277 123.674 380.823 123.902 378.232 123.845C375.641 123.78 373.155 123.39 371.059 122.496C368.971 121.611 367.338 120.303 366.25 118.987C365.161 117.663 364.617 116.347 364.397 115.421C364.292 114.958 364.235 114.592 364.227 114.34C364.211 114.088 364.202 113.958 364.227 113.958C364.276 113.958 364.3 114.478 364.56 115.38C364.82 116.274 365.388 117.533 366.477 118.792C367.557 120.051 369.174 121.294 371.205 122.139C373.244 122.984 375.681 123.358 378.232 123.423C380.791 123.479 383.236 123.268 385.462 123.13C387.688 122.984 389.711 122.943 391.409 123.057C393.106 123.171 394.463 123.423 395.373 123.682C395.828 123.812 396.177 123.918 396.413 124.016C396.648 124.105 396.77 124.154 396.762 124.17L396.778 124.162Z" fill="#D64923"/>
<path d="M444.651 161.1C444.651 161.1 444.578 161.141 444.415 161.206C444.253 161.271 444.017 161.376 443.692 161.433C443.043 161.587 442.019 161.669 440.784 161.303C439.566 160.929 438.152 160.15 436.885 158.842C435.585 157.55 434.627 155.673 433.749 153.586C432.864 151.506 432.116 149.11 430.67 146.908C429.988 145.779 429.07 144.763 428.095 143.764C427.055 142.822 425.934 141.904 424.651 141.156C419.549 138.086 412.847 136.818 406.007 137.225C399.126 137.582 392.66 138.931 386.673 139.353C380.694 139.889 375.202 139.231 370.905 137.72C366.583 136.242 363.561 133.935 361.871 132.058C361.424 131.611 361.091 131.148 360.791 130.766C360.482 130.385 360.255 130.043 360.084 129.751C359.921 129.483 359.791 129.272 359.686 129.101C359.596 128.955 359.556 128.874 359.564 128.874C359.564 128.874 359.621 128.939 359.726 129.077C359.832 129.239 359.978 129.442 360.157 129.702C360.336 129.978 360.571 130.32 360.888 130.685C361.197 131.059 361.538 131.506 361.993 131.944C363.707 133.772 366.721 136.006 371.002 137.436C375.267 138.89 380.694 139.516 386.64 138.955C392.595 138.516 399.061 137.16 405.991 136.794C412.888 136.388 419.679 137.671 424.862 140.815C426.162 141.579 427.307 142.521 428.363 143.488C429.362 144.512 430.297 145.56 430.979 146.713C432.449 148.98 433.172 151.392 434.042 153.472C434.886 155.552 435.813 157.404 437.064 158.679C438.29 159.971 439.655 160.767 440.841 161.149C442.035 161.531 443.043 161.482 443.684 161.352C444.334 161.23 444.651 161.068 444.659 161.1H444.651Z" fill="#D64923"/>
<path d="M316.882 68.7504C313.73 68.6692 311.041 71.0169 310.692 74.1445L304.12 142.554C302.982 152.172 315.566 172.798 325.875 173.935C336.289 175.081 337.305 170.036 338.653 160.921C340.912 145.689 341.667 139.962 341.659 140.052C341.659 140.052 355.063 139.605 360.035 122.846C362.504 114.511 363.918 100.498 364.706 88.9945C365.413 78.6369 360.27 65.1435 349.896 64.8835L316.882 68.7504Z" fill="#FFBE9D"/>
<path d="M360.173 98.0687C360.059 99.2304 358.987 100.1 357.768 100.002C356.55 99.9046 355.656 98.8892 355.77 97.7275C355.884 96.5658 356.956 95.6966 358.175 95.7941C359.393 95.8916 360.287 96.907 360.181 98.0768L360.173 98.0687Z" fill="#263238"/>
<path d="M361.107 93.6413C360.855 93.95 359.092 92.829 356.72 92.9996C354.34 93.1377 352.683 94.4781 352.407 94.21C352.268 94.0881 352.512 93.552 353.235 92.9427C353.942 92.3416 355.185 91.716 356.663 91.6185C358.142 91.5211 359.425 91.9841 360.181 92.4878C360.953 92.9996 361.237 93.5032 361.107 93.6413Z" fill="#263238"/>
<path d="M339.271 99.3035C338.987 99.5879 337.346 98.2962 334.966 98.2312C332.585 98.1337 330.806 99.3117 330.554 99.0111C330.433 98.8811 330.725 98.3612 331.505 97.8332C332.269 97.3051 333.56 96.8015 335.047 96.8502C336.533 96.8989 337.76 97.4838 338.467 98.0606C339.182 98.6455 339.417 99.1736 339.279 99.2954L339.271 99.3035Z" fill="#263238"/>
<path d="M343.707 111.887C343.707 111.749 345.218 111.692 347.63 111.7C348.24 111.716 348.824 111.676 348.987 111.278C349.19 110.863 349.019 110.181 348.816 109.434C348.443 107.898 348.053 106.29 347.638 104.608C346.022 97.7437 344.941 92.1303 345.218 92.0653C345.494 92.0003 347.029 97.5162 348.646 104.381C349.028 106.07 349.401 107.687 349.742 109.222C349.881 109.937 350.173 110.766 349.742 111.627C349.523 112.058 349.036 112.326 348.638 112.374C348.24 112.439 347.898 112.407 347.598 112.374C345.185 112.188 343.698 112.001 343.707 111.871V111.887Z" fill="#263238"/>
<path d="M341.659 140.052C341.659 140.052 330.042 139.28 319.539 130.921C319.539 130.921 323.771 143.448 341.115 144.106L341.659 140.052Z" fill="#EB996E"/>
<path d="M339.604 95.2336C339.23 95.8104 336.98 94.9736 334.185 94.6568C331.391 94.2912 329.011 94.5756 328.783 93.9257C328.686 93.617 329.205 93.1133 330.237 92.7071C331.261 92.3009 332.796 92.0491 334.478 92.2522C336.151 92.4553 337.589 93.0646 338.483 93.6982C339.384 94.3318 339.774 94.9493 339.604 95.2255V95.2336Z" fill="#263238"/>
<path d="M360.75 90.4486C360.36 91.0092 358.694 90.5299 356.72 90.6111C354.746 90.6111 353.097 91.1635 352.683 90.6111C352.504 90.343 352.74 89.7906 353.438 89.2382C354.129 88.6939 355.315 88.2146 356.672 88.1821C358.028 88.1578 359.231 88.5883 359.937 89.1082C360.66 89.6281 360.92 90.1724 360.75 90.4486Z" fill="#263238"/>
<path d="M337.955 116.201C339.035 115.47 340.4 115.185 341.676 115.421C342.326 115.543 342.984 115.811 343.406 116.323C343.966 116.989 344.031 117.931 344.007 118.808C343.991 119.328 343.958 119.864 343.78 120.352C343.601 120.839 343.26 121.294 342.789 121.514C342.301 121.741 341.732 121.684 341.196 121.595C340.311 121.449 339.425 121.197 338.686 120.685C337.947 120.173 337.37 119.385 337.281 118.492C337.191 117.598 337.695 116.639 338.54 116.331" fill="#EB996E"/>
<path d="M344.365 121.416C344.186 121.481 343.877 120.961 343.309 120.246C342.74 119.531 341.871 118.63 340.701 117.964C339.531 117.297 338.312 117.005 337.411 116.883C336.509 116.753 335.9 116.753 335.867 116.566C335.827 116.404 336.395 116.087 337.427 115.981C338.442 115.876 339.929 116.055 341.334 116.859C342.732 117.655 343.65 118.841 344.08 119.775C344.519 120.709 344.527 121.367 344.373 121.416H344.365Z" fill="#263238"/>
<path d="M303.202 137.85C308.84 136.729 313.194 131.879 315.135 126.461C317.077 121.051 316.979 115.128 316.459 109.401C316.395 108.662 316.273 107.842 315.688 107.387C314.835 106.729 313.608 107.265 312.69 107.825C309.132 109.994 305.72 112.391 302.471 115.007C299.449 117.444 296.459 120.246 295.297 123.943C293.518 129.621 297.28 136.404 303.039 137.907" fill="#263238"/>
<path d="M432.985 136.526L406.356 93.7305L399.004 78.6692C399.004 78.6692 396.656 75.5579 394.219 72.9014C390.214 68.539 386.266 71.9266 386.266 71.9266C386.266 71.9266 385.689 70.2613 383.594 70.2775C381.091 70.3019 379.914 72.1541 379.914 72.1541C379.914 72.1541 378.825 70.9436 375.803 70.7568C375.153 70.7162 374.503 70.968 373.886 71.3742C372.895 70.505 371.083 69.2458 369.328 69.8876C367.964 70.3831 359.686 76.6789 357.647 79.8472C356.639 81.415 358.508 83.4459 361.026 82.4955C362.131 82.073 363.244 81.74 364.048 81.2688C365.397 80.4808 366.095 79.6197 366.095 79.6197C366.095 79.6197 364.007 83.2753 366.095 83.9171C366.964 84.1852 368.809 83.9902 370.011 82.9666C370.807 82.2924 371.725 81.4231 372.594 80.5783C372.562 80.627 372.521 80.6758 372.489 80.7245C371.335 82.4305 374.341 84.9569 375.803 83.9333C376.534 83.4216 377.176 82.9016 377.745 82.398C381.124 84.8513 376.429 87.9952 374.446 87.8327C371.376 87.5809 367.785 87.5971 365.283 87.8002C363.561 87.9464 362.017 88.3526 361.091 89.3112C359.97 90.4648 361.148 92.8856 362.732 93.1293C365.648 93.5761 369.369 94.226 373.236 95.2252C377.793 96.395 389.703 100.27 389.703 100.27L390.864 101.212L407.063 140.701L379.337 146.575L373.147 181.701L423.188 168.127C434.464 162.262 439.801 147.257 432.977 136.534L432.985 136.526Z" fill="#FFBE9D"/>
<path d="M389.703 100.262C389.703 100.262 389.483 100.221 389.069 100.108C388.622 99.9775 388.021 99.8069 387.274 99.5957C385.673 99.1246 383.439 98.4584 380.694 97.6379C379.304 97.2155 377.785 96.7606 376.153 96.265C374.52 95.7614 372.781 95.2415 370.921 94.7703C369.069 94.2991 367.111 93.8279 365.056 93.5599C364.056 93.4055 362.927 93.503 361.871 92.9831C361.611 92.8531 361.359 92.6906 361.156 92.4469C361.059 92.3251 360.969 92.1951 360.913 92.0082L360.848 91.5777C360.783 91.0172 360.774 90.4323 360.953 89.8555C361.14 89.2706 361.595 88.7913 362.107 88.5232C362.61 88.2389 363.147 88.0764 363.658 87.9058C364.723 87.5646 365.819 87.5077 366.867 87.5077C368.979 87.5321 370.97 87.8246 372.871 87.7514C373.821 87.719 374.747 87.6377 375.624 87.4834C376.51 87.3209 377.355 87.0934 378.183 86.8822C379.824 86.4435 381.441 86.1267 382.919 86.2811C384.39 86.4029 385.665 86.8172 386.738 87.2559C387.81 87.6946 388.687 88.1658 389.402 88.5638C390.109 88.9619 390.645 89.2949 391.011 89.5143C391.368 89.7417 391.555 89.8717 391.547 89.8798C391.539 89.888 391.336 89.7905 390.962 89.5874C390.548 89.3681 390.003 89.0756 389.321 88.7019C388.598 88.3282 387.721 87.8814 386.648 87.4671C385.584 87.0528 384.325 86.671 382.895 86.5735C381.465 86.4435 379.914 86.7685 378.273 87.2153C377.452 87.4346 376.599 87.6783 375.689 87.8489C374.78 88.0195 373.845 88.1089 372.879 88.1414C370.937 88.2307 368.922 87.9464 366.859 87.9221C365.827 87.9221 364.771 87.987 363.78 88.3039C362.789 88.6288 361.652 88.9781 361.351 89.9855C361.197 90.4647 361.205 91.0009 361.262 91.5289L361.311 91.9026C361.335 91.9839 361.4 92.0895 361.465 92.1707C361.619 92.3494 361.822 92.4875 362.042 92.5931C362.952 93.0481 364.04 92.975 365.088 93.1293C367.176 93.4055 369.134 93.8929 370.994 94.3722C372.854 94.8596 374.601 95.3877 376.226 95.9076C377.85 96.4194 379.361 96.8905 380.75 97.3292C383.48 98.1985 385.706 98.9133 387.298 99.417C388.037 99.6607 388.63 99.8557 389.069 100.002C389.475 100.14 389.686 100.221 389.678 100.237L389.703 100.262Z" fill="#EB996E"/>
<path d="M369.174 69.9528C369.215 70.0178 367.923 70.7733 366.006 72.2193C365.047 72.9423 363.951 73.8603 362.821 74.9813C361.684 76.0862 360.49 77.3859 359.076 78.5964C358.386 79.1813 357.736 79.8149 357.574 80.6029C357.492 80.9847 357.525 81.3828 357.712 81.6915C357.89 82.0083 358.207 82.2195 358.548 82.3414C359.255 82.5769 360.011 82.512 360.693 82.382C361.375 82.252 362.001 82.0652 362.553 81.8458C364.771 80.9441 365.795 79.7662 365.852 79.8474C365.868 79.8636 365.632 80.1561 365.12 80.6029C364.609 81.0497 363.796 81.6346 362.667 82.122C362.107 82.3657 361.465 82.5769 360.758 82.7232C360.059 82.8694 359.247 82.9669 358.418 82.7069C358.012 82.5769 357.598 82.3089 357.354 81.8946C357.102 81.4884 357.062 80.9766 357.151 80.5135C357.338 79.5549 358.093 78.8563 358.784 78.2714C360.173 77.0772 361.367 75.8018 362.529 74.697C363.691 73.5841 364.82 72.6823 365.811 71.9756C366.794 71.2688 367.639 70.7652 368.224 70.424C368.817 70.0909 369.15 69.9203 369.158 69.9447L369.174 69.9528Z" fill="#EB996E"/>
<path d="M379.337 73.3159C379.337 73.3159 379.02 73.7303 378.394 74.437C377.72 75.1844 376.818 76.1755 375.722 77.3778C374.568 78.6288 373.212 80.0829 371.717 81.6995C370.945 82.5282 370.027 83.2999 368.906 83.8442C368.345 84.1123 367.72 84.3154 367.046 84.3072C366.38 84.291 365.681 84.096 365.177 83.5599C364.909 83.2837 364.779 82.91 364.73 82.5444C364.698 82.1788 364.755 81.8295 364.836 81.4965C365.023 80.8384 365.332 80.2617 365.697 79.7174L365.713 79.693C367.143 78.1739 368.475 76.7441 369.678 75.4281C370.896 74.1364 372.066 73.0804 373.017 72.1786C373.488 71.7318 373.926 71.3094 374.406 71.0576C374.901 70.8057 375.364 70.8139 375.722 70.7732C376.437 70.7245 376.859 70.7895 376.827 70.8626C376.843 70.8301 376.445 70.822 375.738 70.9113C375.397 70.9763 374.926 70.9926 374.511 71.2363C374.081 71.48 373.675 71.9024 373.203 72.3655C372.277 73.2916 371.132 74.3639 369.938 75.6637C368.768 76.9797 367.436 78.4338 366.006 79.9773L366.022 79.953C365.689 80.4404 365.397 81.009 365.234 81.5939C365.153 81.8864 365.12 82.1951 365.137 82.4875C365.177 82.7719 365.275 83.0481 365.47 83.2593C365.843 83.6655 366.469 83.8604 367.029 83.8686C367.614 83.8686 368.183 83.698 368.711 83.4461C369.759 82.9425 370.669 82.1951 371.416 81.4071C372.935 79.8149 374.316 78.377 375.486 77.1422C376.623 75.9805 377.558 75.0138 378.256 74.2908C378.557 73.9902 378.817 73.7384 379.028 73.5272C379.207 73.3566 379.304 73.2753 379.321 73.2835L379.337 73.3159Z" fill="#EB996E"/>
<path d="M391.782 77.2314C391.823 77.2639 391.742 77.4751 391.457 77.7025C391.181 77.9219 390.677 78.1331 390.109 78.0356C389.54 77.9381 389.134 77.5726 388.955 77.2639C388.768 76.9552 388.76 76.7277 388.817 76.7115C388.874 76.6871 388.98 76.8658 389.191 77.077C389.402 77.2882 389.751 77.5401 390.182 77.6132C390.612 77.6863 391.027 77.5726 391.295 77.4426C391.571 77.3126 391.725 77.1826 391.774 77.2232L391.782 77.2314Z" fill="#EB996E"/>
<path d="M392.757 80.9601C392.668 81.0332 392.058 80.4239 391.522 79.514C390.986 78.6042 390.742 77.7756 390.848 77.735C390.962 77.6862 391.368 78.4174 391.888 79.3028C392.408 80.1883 392.854 80.8951 392.757 80.9682V80.9601Z" fill="#EB996E"/>
<path d="M394.552 95.4852C394.512 95.5096 394.146 94.884 393.781 93.7955C393.415 92.7069 393.09 91.1228 393.115 89.3518C393.139 87.5809 393.505 86.013 393.903 84.9326C394.292 83.8521 394.674 83.2429 394.715 83.2591C394.853 83.2997 393.561 85.8912 393.537 89.36C393.464 92.8288 394.691 95.4527 394.552 95.4852Z" fill="#EB996E"/>
<path d="M416.421 151.774C416.34 151.782 416.259 150.913 415.836 149.589C415.633 148.923 415.308 148.167 414.878 147.355C414.431 146.559 413.871 145.722 413.18 144.926C412.481 144.138 411.718 143.472 410.987 142.928C410.239 142.399 409.532 141.977 408.899 141.685C407.64 141.092 406.787 140.905 406.811 140.823C406.811 140.791 407.03 140.823 407.42 140.905C407.81 140.978 408.363 141.148 409.021 141.408C409.679 141.668 410.434 142.075 411.214 142.603C411.986 143.147 412.774 143.829 413.497 144.642C414.212 145.462 414.78 146.339 415.219 147.168C415.641 148.013 415.95 148.809 416.121 149.5C416.299 150.19 416.397 150.759 416.413 151.149C416.438 151.547 416.446 151.766 416.413 151.766L416.421 151.774Z" fill="#EB996E"/>
<path d="M323.503 230.013C319.953 229.274 316.744 230.874 316.744 230.874C313.129 229.274 308.669 232.036 308.669 232.036C307.361 231.41 299.481 236.561 299.481 236.561L289.668 241.191L237.246 202.238L252.104 186.779L231.283 165.113L206.88 190.223C203.842 193.359 202.306 197.591 202.014 202.043C201.396 211.588 206.839 220.5 215.369 224.822L277.141 256.504C277.141 256.504 283.689 256.277 291.187 254.319C296.516 252.93 305.623 248.884 305.623 248.884C305.623 248.884 305.598 249.16 307.223 252.312C310.156 257.991 314.453 251.865 314.453 251.865C314.453 251.865 315.331 253.88 316.119 254.644C319.831 258.242 322.406 253.409 322.406 253.409C322.406 253.409 323.519 255.35 326.842 253.904C330.148 252.467 326.363 242.483 326.363 242.483C326.363 242.483 327.475 244.652 329.628 241.906C331.781 239.16 327.069 230.752 323.511 230.013H323.503Z" fill="#FFBE9D"/>
<path d="M316.086 231.378C316.086 231.378 316.305 231.231 316.768 231.118C317.223 230.996 317.938 230.963 318.759 231.175C319.579 231.386 320.497 231.841 321.383 232.515C321.829 232.856 322.268 233.222 322.69 233.685C323.105 234.148 323.43 234.7 323.714 235.269C324.843 237.543 325.631 239.704 326.111 241.288C326.354 242.085 326.517 242.734 326.622 243.181C326.72 243.636 326.76 243.888 326.736 243.896C326.671 243.912 326.379 242.929 325.834 241.378C325.282 239.826 324.453 237.706 323.34 235.456C323.064 234.903 322.755 234.383 322.382 233.953C322 233.53 321.569 233.149 321.147 232.824C320.302 232.157 319.441 231.703 318.677 231.459C317.11 230.971 316.102 231.483 316.086 231.369V231.378Z" fill="#EB996E"/>
<path d="M322.398 253.409C322.398 253.409 322.211 253.1 321.943 252.507C321.635 251.841 321.253 251.004 320.798 250.021C319.831 247.917 318.418 245.05 317.069 241.768C316.411 240.127 315.81 238.559 314.933 237.332C314.08 236.089 312.95 235.285 311.919 234.814C310.887 234.335 309.936 234.27 309.319 234.351C308.694 234.432 308.369 234.603 308.344 234.562C308.344 234.546 308.417 234.505 308.572 234.424C308.726 234.343 308.97 234.253 309.295 234.188C309.936 234.05 310.944 234.083 312.04 234.538C313.129 234.985 314.348 235.813 315.257 237.097C316.184 238.364 316.809 239.972 317.467 241.605C318.808 244.863 320.18 247.755 321.082 249.9C321.537 250.964 321.886 251.841 322.106 252.45C322.333 253.06 322.439 253.401 322.406 253.417L322.398 253.409Z" fill="#EB996E"/>
<path d="M298.336 240.874C298.336 240.874 298.62 240.679 299.173 240.411C299.806 240.102 300.586 239.729 301.512 239.282C302.016 239.046 302.544 238.786 303.153 238.526C303.779 238.275 304.502 238.153 305.257 238.218C306.013 238.291 306.793 238.559 307.459 239.063C308.125 239.574 308.62 240.265 309.075 240.988C309.522 241.711 309.872 242.466 310.213 243.173C310.562 243.88 310.919 244.546 311.269 245.18C311.976 246.439 312.642 247.576 313.137 248.559C313.633 249.542 313.974 250.371 314.177 250.956C314.38 251.54 314.461 251.865 314.437 251.882C314.364 251.906 313.925 250.614 312.869 248.705C312.349 247.747 311.659 246.634 310.928 245.375C310.562 244.741 310.196 244.075 309.839 243.36C309.482 242.645 309.14 241.914 308.71 241.215C308.279 240.517 307.792 239.859 307.207 239.404C306.614 238.949 305.899 238.697 305.217 238.616C304.526 238.543 303.852 238.64 303.275 238.859C302.69 239.095 302.138 239.347 301.634 239.558C300.684 239.956 299.888 240.289 299.238 240.565C298.669 240.793 298.344 240.907 298.336 240.882V240.874Z" fill="#EB996E"/>
<path d="M299.473 236.56C299.473 236.56 299.23 236.747 298.758 237.015C298.287 237.283 297.597 237.657 296.736 238.112C295.022 239.022 292.633 240.249 289.985 241.581C287.337 242.913 284.932 244.099 283.177 244.944C282.3 245.366 281.585 245.7 281.089 245.919C280.594 246.138 280.31 246.252 280.301 246.219C280.285 246.195 280.545 246.033 281.016 245.765C281.488 245.496 282.178 245.123 283.039 244.668C284.753 243.758 287.142 242.531 289.79 241.199C292.438 239.867 294.843 238.681 296.598 237.836C297.475 237.413 298.182 237.08 298.685 236.861C299.181 236.642 299.465 236.528 299.473 236.552V236.56Z" fill="#EB996E"/>
<path d="M237.937 202.328C237.912 202.466 235.167 201.702 231.747 202.124C228.326 202.506 225.824 203.895 225.776 203.765C225.751 203.725 226.336 203.319 227.384 202.856C228.432 202.393 229.951 201.905 231.698 201.702C233.436 201.499 235.037 201.613 236.158 201.816C237.287 202.019 237.945 202.271 237.937 202.319V202.328Z" fill="#EB996E"/>
<path d="M353.707 61.6097C340.733 61.431 327.744 62.8039 315.095 65.6878C312.162 66.3539 309.059 67.215 307.077 69.4815C304.981 71.8698 304.607 75.2818 304.331 78.45C303.998 82.3087 303.665 86.1675 303.324 90.0262C302.763 90.9929 302.138 91.919 301.472 92.7882C298.417 96.7769 294.526 100.1 291.748 104.291C288.969 108.475 287.434 114.04 289.7 118.524C291.065 121.237 293.608 123.146 295.46 125.559C298.604 129.645 299.628 134.909 301.464 139.727C303.299 144.544 306.614 149.451 311.675 150.417C314.088 150.88 316.598 150.369 319.027 150.726C322.658 151.254 325.713 153.634 328.605 155.901C331.497 158.167 334.624 160.483 338.272 160.84C341.927 161.206 346.111 158.728 346.184 155.056C343.503 156.616 339.945 156.51 337.354 154.804C335.225 153.407 333.853 151.132 332.025 149.353C327.54 144.999 320.302 143.618 317.183 138.199C314.713 133.91 315.696 128.549 316.817 123.731C317.792 119.556 318.775 115.023 317.573 111.01C317.662 110.368 317.719 109.71 317.719 109.06C317.751 104.787 316.054 100.205 318.044 96.4276C320.676 91.4235 328.263 90.7979 330.92 85.81C332.463 82.9099 331.919 79.2055 333.609 76.3947C335.201 73.7464 338.369 72.5279 341.391 71.8699C344.405 71.2118 347.59 70.9113 350.262 69.3515C352.927 67.7999 354.909 64.453 353.707 61.6097Z" fill="#263238"/>
<path d="M363.552 148.768C363.552 148.768 363.52 148.841 363.431 148.971C363.325 149.118 363.195 149.305 363.032 149.54C362.667 150.028 362.058 150.694 361.164 151.433C360.254 152.148 359.019 152.887 357.46 153.423C355.908 153.959 354.007 154.284 351.927 154.065C349.856 153.894 347.614 153.05 345.705 151.514C343.771 150.028 342.049 148.053 339.864 146.486C338.767 145.714 337.516 145.096 336.143 144.926C334.762 144.731 333.357 145.129 332 145.673C330.635 146.209 329.262 146.9 327.695 147.16C326.127 147.436 324.486 147.054 323.072 146.339C321.634 145.633 320.375 144.682 319.165 143.748C317.954 142.806 316.768 141.855 315.737 140.767C314.697 139.694 313.803 138.468 313.3 137.095C312.763 135.722 312.739 134.227 313.023 132.87C313.291 131.506 313.787 130.263 314.25 129.06C314.721 127.858 315.127 126.688 315.485 125.535C316.183 123.228 316.671 121.026 316.988 119.003C317.621 114.95 317.621 111.603 317.516 109.312C317.467 108.166 317.394 107.273 317.329 106.672C317.304 106.387 317.28 106.16 317.272 105.989C317.264 105.835 317.256 105.754 317.272 105.754C317.288 105.754 317.296 105.827 317.321 105.981C317.345 106.16 317.378 106.379 317.426 106.664C317.516 107.265 317.613 108.15 317.694 109.304C317.849 111.603 317.898 114.958 317.304 119.052C317.004 121.091 316.533 123.309 315.842 125.64C315.485 126.802 315.087 127.996 314.616 129.198C314.161 130.401 313.681 131.636 313.421 132.952C313.161 134.26 313.186 135.657 313.698 136.957C314.177 138.264 315.038 139.434 316.053 140.482C317.069 141.538 318.239 142.481 319.441 143.415C320.643 144.349 321.886 145.275 323.275 145.958C324.648 146.648 326.184 146.997 327.654 146.746C329.124 146.51 330.489 145.836 331.87 145.291C333.243 144.739 334.738 144.317 336.208 144.528C337.67 144.715 338.986 145.381 340.108 146.177C342.342 147.802 344.048 149.776 345.94 151.254C347.801 152.773 349.953 153.594 351.976 153.781C353.999 154.016 355.867 153.716 357.403 153.212C358.946 152.708 360.173 152.002 361.083 151.319C362.894 149.906 363.512 148.744 363.577 148.793L363.552 148.768Z" fill="#263238"/>
<path d="M282.389 122.935C282.389 122.935 282.137 122.651 281.739 122.042C281.357 121.424 280.878 120.441 280.594 119.085C280.301 117.728 280.261 115.998 280.675 114.064C281.106 112.147 281.959 110.01 283.486 108.036C284.981 106.054 287.011 104.21 289.351 102.488C291.683 100.75 294.331 99.141 296.971 97.2564C299.587 95.3635 302.268 93.1702 304.201 90.2294C305.176 88.7753 305.866 87.118 306.394 85.3796C306.923 83.6411 307.28 81.8214 307.694 79.9855C308.109 78.1495 308.58 76.3298 309.335 74.6401C310.066 72.9423 311.155 71.3988 312.528 70.229C313.901 69.0592 315.501 68.2306 317.134 67.6944C318.767 67.142 320.44 66.8577 322.073 66.7196C325.347 66.4352 328.45 66.8008 331.334 67.012C334.218 67.2476 336.907 67.3776 339.344 67.1176C341.781 66.8821 343.909 66.1509 345.624 65.2492C347.33 64.3231 348.621 63.2183 349.474 62.146C350.327 61.0818 350.79 60.1069 351.026 59.4245C351.253 58.7422 351.343 58.3685 351.367 58.3766C351.367 58.3766 351.318 58.7584 351.107 59.457C350.888 60.1476 350.449 61.1549 349.596 62.2516C348.759 63.3564 347.451 64.5018 345.729 65.4604C343.999 66.3946 341.846 67.1583 339.368 67.4182C336.907 67.7025 334.185 67.5888 331.302 67.3695C328.418 67.1664 325.331 66.8252 322.106 67.1176C320.497 67.2639 318.856 67.5482 317.264 68.0925C315.664 68.6205 314.12 69.4248 312.796 70.5621C311.472 71.6912 310.432 73.1779 309.717 74.8351C308.986 76.4842 308.515 78.2795 308.1 80.1073C307.678 81.9352 307.321 83.763 306.793 85.5258C306.264 87.2886 305.541 88.9946 304.542 90.4812C302.56 93.487 299.831 95.6966 297.19 97.5975C294.526 99.4822 291.878 101.083 289.554 102.797C287.223 104.486 285.208 106.298 283.721 108.24C282.21 110.165 281.349 112.253 280.902 114.137C280.48 116.03 280.488 117.736 280.756 119.076C281.292 121.782 282.495 122.927 282.397 122.96L282.389 122.935Z" fill="#D64923"/>
<path d="M284.769 127.2C284.769 127.2 283.762 126.469 282.275 124.803C281.544 123.967 280.683 122.87 280.106 121.359C279.83 120.612 279.643 119.742 279.733 118.816C279.814 117.898 280.196 116.956 280.829 116.152C282.145 114.543 284.322 113.674 286.605 113.195C287.759 112.951 288.953 112.764 290.147 112.472C291.341 112.179 292.56 111.765 293.608 111.034C294.648 110.286 295.5 109.247 296.126 108.052C296.768 106.858 297.215 105.526 297.686 104.178C298.157 102.829 298.628 101.432 299.343 100.108C300.033 98.7753 301.065 97.5568 302.389 96.7363C303.713 95.9158 305.184 95.4609 306.622 95.0872C308.06 94.7135 309.481 94.4129 310.822 93.958C313.535 93.105 315.663 91.2447 317.272 89.2056C318.905 87.1666 320.099 84.9651 321.277 82.9423C322.447 80.9195 323.608 79.0511 324.924 77.532C326.216 75.9966 327.678 74.8593 329.092 74.1282C330.513 73.3889 331.87 73.0558 332.983 72.9502C334.104 72.8609 334.981 72.999 335.542 73.1614C336.111 73.3158 336.387 73.4539 336.387 73.4539C336.387 73.4783 336.086 73.3645 335.526 73.2427C334.965 73.1127 334.096 73.0071 332.999 73.1127C331.903 73.2346 330.587 73.592 329.205 74.3313C327.824 75.0705 326.411 76.1997 325.152 77.7188C323.876 79.2217 322.731 81.082 321.577 83.1129C320.416 85.1357 319.23 87.3616 317.572 89.4412C316.752 90.4811 315.81 91.4803 314.705 92.3414C313.608 93.2106 312.325 93.893 310.944 94.3479C309.571 94.8191 308.141 95.1197 306.719 95.4933C305.298 95.867 303.868 96.3138 302.609 97.0937C301.35 97.8736 300.375 99.019 299.7 100.311C299.01 101.594 298.539 102.967 298.068 104.316C297.596 105.664 297.141 107.013 296.475 108.247C295.825 109.482 294.932 110.579 293.819 111.367C292.706 112.139 291.439 112.553 290.22 112.845C289.002 113.138 287.799 113.317 286.662 113.552C284.412 114.007 282.3 114.844 281.049 116.355C280.439 117.102 280.074 117.988 279.984 118.857C279.887 119.726 280.049 120.563 280.309 121.286C280.845 122.748 281.682 123.853 282.381 124.698C283.096 125.543 283.705 126.152 284.119 126.566C284.314 126.753 284.469 126.907 284.599 127.029C284.704 127.135 284.761 127.192 284.753 127.2H284.769Z" fill="#D64923"/>
<path d="M384.771 74.7212C384.771 74.7212 384.642 74.9649 384.349 75.3467C384.057 75.7366 383.618 76.2809 383.066 76.9471C381.961 78.2793 380.368 80.0665 378.5 81.9431C377.574 82.8448 376.705 83.8765 375.511 84.2502C374.934 84.4289 374.316 84.4371 373.796 84.234C373.268 84.0309 372.911 83.6247 372.692 83.2266C372.253 82.4062 372.326 81.6344 372.383 81.1632C372.456 80.6758 372.554 80.424 372.578 80.4321C372.61 80.4321 372.578 80.7083 372.545 81.1795C372.537 81.6425 372.521 82.3737 372.943 83.0804C373.155 83.4297 373.472 83.7547 373.91 83.909C374.341 84.0634 374.877 84.0553 375.381 83.8847C376.412 83.5516 377.257 82.5686 378.191 81.6507C380.052 79.7822 381.668 78.0356 382.83 76.7602C383.992 75.4848 384.707 74.6887 384.755 74.7293L384.771 74.7212Z" fill="#EB996E"/>
<path d="M390.978 74.7295C390.978 74.7295 390.823 74.9732 390.49 75.3631C390.157 75.7531 389.662 76.3055 389.044 76.9797C388.394 77.6784 387.663 78.4745 386.859 79.3437C386.445 79.7905 386.006 80.2536 385.559 80.7329C385.104 81.2122 384.625 81.7158 384.032 82.1383C383.447 82.5607 382.765 82.8775 382.05 82.9263C381.343 82.9912 380.596 82.6907 380.206 82.122C380.011 81.8458 379.897 81.5127 379.905 81.1797C379.905 80.8466 380.043 80.5541 380.181 80.3104C380.482 79.823 380.791 79.4493 381.059 79.0756C381.603 78.3364 382.05 77.7434 382.359 77.3372C382.675 76.931 382.862 76.7198 382.887 76.736C382.911 76.7523 382.773 77.0041 382.497 77.4347C382.22 77.8652 381.814 78.4907 381.302 79.2462C381.059 79.6281 380.742 80.0424 380.49 80.481C380.23 80.9197 380.19 81.4559 380.523 81.8945C380.839 82.3332 381.416 82.5688 382.025 82.5119C382.635 82.4713 383.244 82.187 383.788 81.7971C384.333 81.4071 384.804 80.9197 385.259 80.4485C385.714 79.9774 386.152 79.5224 386.575 79.0838C387.403 78.2389 388.159 77.4672 388.825 76.7848C389.467 76.1349 389.995 75.615 390.368 75.2575C390.742 74.9001 390.953 74.7214 390.978 74.7376V74.7295Z" fill="#EB996E"/>
<path d="M475.797 323.427C477.186 320.405 480.119 318.146 483.393 317.578C486.667 317.009 490.192 318.155 492.516 320.535C490.932 323.354 488.088 325.23 485.034 326.278C481.435 327.521 477.528 326.067 475.789 323.427" fill="#002029"/>
<path d="M470.029 324.759C470.013 324.71 470.898 324.385 472.361 324.028C473.831 323.671 475.87 323.264 478.145 322.891C480.411 322.517 482.483 322.233 483.977 322.062C485.472 321.883 486.406 321.818 486.415 321.875C486.415 321.932 485.505 322.111 484.018 322.363C482.401 322.631 480.411 322.956 478.21 323.313C475.943 323.687 473.896 324.044 472.417 324.32C470.939 324.597 470.037 324.816 470.021 324.759H470.029Z" fill="#263238"/>
<path d="M185.433 271.996C188.878 274.831 190.771 279.453 190.291 283.897C189.812 288.341 186.985 292.451 183.012 294.49C180.031 286.846 178.886 278.625 185.433 272.004" fill="#002029"/>
<path d="M196.733 277.861C197.05 283.629 200.422 289.145 205.418 292.045C210.414 294.945 216.872 295.156 222.039 292.573C216.36 283.605 208.659 276.098 196.733 277.861Z" fill="#002029"/>
<path d="M170.843 249.607C170.843 249.607 170.981 249.737 171.217 250.013C171.477 250.322 171.81 250.728 172.232 251.224C173.102 252.288 174.353 253.823 175.945 255.684C179.113 259.421 183.589 264.506 188.862 269.811C191.502 272.459 194.093 274.904 196.506 277.065C198.935 279.21 201.185 281.07 203.127 282.549C205.093 284.003 206.717 285.14 207.911 285.806C209.089 286.505 209.788 286.789 209.772 286.838C209.772 286.854 209.593 286.781 209.26 286.643C208.927 286.497 208.431 286.302 207.838 285.952C206.612 285.327 204.954 284.222 202.956 282.792C200.974 281.338 198.707 279.494 196.254 277.358C193.825 275.205 191.217 272.76 188.569 270.111C183.289 264.798 178.837 259.672 175.726 255.879C174.166 253.986 172.939 252.426 172.111 251.329C171.721 250.809 171.404 250.395 171.16 250.07C170.949 249.778 170.843 249.623 170.851 249.615L170.843 249.607Z" fill="#263238"/>
<path d="M184.808 283.556C184.735 283.539 185.011 282.41 185.238 280.566C185.474 278.722 185.604 276.147 185.319 273.328C185.019 270.509 184.361 268.015 183.752 266.26C183.142 264.506 182.647 263.458 182.712 263.425C182.736 263.409 182.882 263.661 183.126 264.132C183.378 264.595 183.687 265.286 184.028 266.163C184.718 267.91 185.433 270.428 185.742 273.287C186.034 276.147 185.848 278.763 185.539 280.615C185.384 281.541 185.222 282.288 185.076 282.792C184.938 283.296 184.84 283.572 184.816 283.564L184.808 283.556Z" fill="#263238"/>
<path d="M543.313 119.15C541.306 116.493 540.713 112.838 541.769 109.686C542.825 106.534 545.498 103.966 548.699 103.057C550.429 105.786 550.73 109.174 550.21 112.366C549.592 116.128 546.465 118.873 543.321 119.15" fill="#002029"/>
<path d="M541.752 124.869C541.704 124.86 541.834 123.926 542.224 122.464C542.605 121.002 543.223 119.011 543.97 116.834C544.718 114.657 545.449 112.707 546.001 111.31C546.554 109.905 546.935 109.06 546.992 109.076C547.049 109.101 546.765 109.986 546.285 111.416C545.749 112.967 545.099 114.868 544.368 116.98C543.621 119.149 542.963 121.124 542.508 122.553C542.053 123.983 541.817 124.885 541.752 124.869Z" fill="#263238"/>
<path d="M507.512 179.59C505.838 173.383 507.406 166.389 511.582 161.498C515.757 156.608 522.411 153.943 528.804 154.617C529.933 160.759 528.024 167.063 524.783 172.408C520.957 178.704 513.353 181.369 507.512 179.598" fill="#002029"/>
<path d="M483.514 203.635C483.514 203.635 483.62 203.473 483.855 203.197C484.123 202.888 484.473 202.498 484.903 202.002C485.838 200.979 487.194 199.517 488.9 197.729C492.304 194.155 497.064 189.273 502.361 183.911C507.658 178.549 512.483 173.732 515.993 170.255C517.731 168.549 519.144 167.16 520.168 166.161C520.639 165.706 521.021 165.34 521.322 165.064C521.59 164.82 521.736 164.69 521.744 164.699C521.752 164.707 521.63 164.853 521.387 165.121C521.11 165.413 520.745 165.795 520.29 166.275C519.291 167.298 517.91 168.72 516.212 170.466C512.719 174.016 507.942 178.858 502.67 184.212C497.397 189.557 492.621 194.399 489.119 197.941C487.422 199.679 486.033 201.093 485.025 202.116C484.57 202.587 484.197 202.961 483.92 203.253C483.66 203.513 483.522 203.643 483.514 203.635Z" fill="#263238"/>
<path d="M496.415 182.002C492.905 180.199 490.379 176.592 489.883 172.676C489.388 168.76 490.923 164.642 493.872 162.018C497.13 164.041 499.201 167.518 500.29 171.189C501.565 175.527 499.64 180.077 496.415 182.002Z" fill="#002029"/>
<path d="M497.682 188.923C497.682 188.923 497.568 188.663 497.43 188.184C497.292 187.697 497.138 186.99 496.967 186.113C496.626 184.35 496.268 181.905 495.943 179.191C495.618 176.478 495.391 174.017 495.261 172.237C495.123 170.45 495.082 169.345 495.139 169.345C495.196 169.345 495.342 170.434 495.553 172.213C495.773 174.106 496.049 176.502 496.358 179.151C496.683 181.856 496.991 184.301 497.259 186.072C497.519 187.835 497.739 188.915 497.674 188.932L497.682 188.923Z" fill="#263238"/>
<path d="M344.299 276.163C346.777 270.322 352.317 265.887 358.556 264.75C364.795 263.612 371.546 265.814 375.916 270.404C366.704 277.544 355.957 282.418 344.291 276.163" fill="#002029"/>
<path d="M339.092 279.015C339.092 279.015 339.336 278.787 339.823 278.446C340.31 278.097 341.033 277.634 341.951 277.097C343.787 276.017 346.452 274.717 349.547 273.694C352.642 272.678 355.558 272.142 357.679 271.915C358.735 271.801 359.596 271.744 360.197 271.736C360.79 271.72 361.123 271.736 361.123 271.76C361.123 271.833 359.815 271.915 357.719 272.215C355.623 272.516 352.756 273.092 349.685 274.1C346.622 275.115 343.966 276.358 342.106 277.365C340.237 278.365 339.141 279.08 339.1 279.023L339.092 279.015Z" fill="#263238"/>
<path d="M130.152 170.304C134.587 168.233 140.063 168.549 144.23 171.125C148.398 173.7 151.135 178.444 151.273 183.343C142.297 182.685 133.613 179.923 130.16 170.304" fill="#002029"/>
<path d="M125.692 169.256C125.692 169.256 125.952 169.24 126.407 169.289C126.862 169.329 127.528 169.435 128.332 169.597C129.949 169.922 132.15 170.54 134.457 171.555C136.764 172.571 138.714 173.773 140.038 174.748C140.704 175.235 141.224 175.649 141.566 175.958C141.915 176.267 142.094 176.437 142.077 176.462C142.037 176.519 141.232 175.893 139.868 174.991C138.503 174.09 136.561 172.944 134.287 171.937C132.012 170.938 129.851 170.28 128.267 169.882C126.683 169.484 125.684 169.313 125.692 169.248V169.256Z" fill="#263238"/>
<path d="M421.246 266.203C420.718 261.857 422.514 257.292 425.861 254.465C429.208 251.638 434.009 250.63 438.209 251.873C435.146 259.323 430.386 265.943 421.246 266.203Z" fill="#002029"/>
<path d="M419.11 269.705C419.07 269.68 419.403 268.835 420.126 267.544C420.849 266.26 421.986 264.554 423.497 262.873C425.008 261.191 426.576 259.875 427.77 259.014C428.972 258.153 429.777 257.73 429.801 257.771C429.833 257.828 429.086 258.34 427.949 259.249C426.803 260.159 425.292 261.492 423.806 263.149C422.319 264.806 421.157 266.455 420.378 267.69C419.598 268.925 419.167 269.721 419.11 269.696V269.705Z" fill="#263238"/>
<path d="M485.171 224.01C483.839 219.834 484.741 215.017 487.495 211.613C490.249 208.209 494.774 206.316 499.136 206.747C497.527 214.635 494.099 222.035 485.171 224.01Z" fill="#002029"/>
<path d="M483.734 227.844C483.685 227.827 483.855 226.934 484.327 225.537C484.79 224.139 485.594 222.247 486.756 220.313C487.917 218.38 489.217 216.787 490.233 215.723C491.248 214.651 491.963 214.082 491.995 214.123C492.044 214.172 491.402 214.813 490.452 215.926C489.501 217.031 488.267 218.632 487.113 220.541C485.968 222.45 485.139 224.286 484.603 225.642C484.067 226.999 483.799 227.868 483.734 227.852V227.844Z" fill="#263238"/>
<path d="M3.30127 165.909C4.25174 161.628 7.46058 157.924 11.5549 156.372C15.6492 154.821 20.5153 155.462 24.0572 158.038C18.6956 164.041 12.0017 168.704 3.30127 165.909Z" fill="#002029"/>
<path d="M0.12489 168.501C0.12489 168.501 0.685421 167.778 1.79836 166.803C2.90318 165.828 4.55228 164.602 6.52632 163.521C8.50849 162.441 10.4257 161.718 11.8392 161.303C13.2527 160.889 14.1625 160.759 14.1707 160.808C14.1869 160.873 13.3096 161.108 11.9285 161.588C10.5475 162.067 8.67909 162.822 6.72129 163.887C4.77161 164.959 3.12251 166.129 1.97708 167.031C0.831647 167.932 0.157384 168.55 0.108643 168.501H0.12489Z" fill="#263238"/>
<path d="M374.625 59.8956C375.356 59.7088 379.776 58.5877 388.728 56.3212L388.671 56.4918V56.4755L388.167 55.8419L388.809 56.3212C390.605 57.6697 392.749 58.9857 395.259 60.0743C397.77 61.1466 400.645 62.0077 403.805 62.3896C405.381 62.5683 407.031 62.6739 408.72 62.5764C409.565 62.5195 410.426 62.487 411.287 62.4058C412.148 62.2677 413.018 62.1215 413.903 61.9752C417.404 61.236 420.971 59.8631 424.293 57.7509C427.608 55.6469 430.67 52.8037 433.116 49.3267C435.553 45.8579 437.38 41.7555 438.217 37.32C439.038 32.8845 438.916 28.1403 437.705 23.5667C436.487 19.0093 434.261 14.5575 430.955 10.9181L429.679 9.53712C429.257 9.07407 428.761 8.69226 428.306 8.26983C427.835 7.87177 427.405 7.41685 426.893 7.05941L425.398 5.96272C424.911 5.58091 424.383 5.27221 423.855 4.96351L422.279 4.02929C421.726 3.76933 421.174 3.50938 420.63 3.24942C420.077 2.99759 419.541 2.70514 418.964 2.52642C414.456 0.787956 409.663 0.146188 405.081 0.519876C400.499 0.88544 396.129 2.24209 392.384 4.38673C388.622 6.51513 385.462 9.35028 383.025 12.5023C380.58 15.6542 378.866 19.1311 377.81 22.5918C376.762 26.0606 376.494 29.505 376.526 32.6895C376.746 39.1072 378.915 44.3713 381.238 48.0838L381.27 48.1326L381.238 48.1813C377.022 55.6469 374.975 59.2701 374.617 59.9037C374.958 59.2701 376.957 55.6144 381.059 48.0838V48.1894C378.703 44.4688 376.478 39.1722 376.234 32.6976C376.193 29.4807 376.445 26.0037 377.493 22.4943C378.549 19.0012 380.271 15.4836 382.733 12.2829C385.186 9.0822 388.387 6.21455 392.189 4.05366C395.974 1.8684 400.41 0.495505 405.04 0.121817C409.679 -0.259994 414.537 0.381774 419.11 2.1446C419.695 2.32332 420.24 2.6239 420.8 2.87573C421.353 3.13569 421.913 3.40377 422.474 3.67185L424.074 4.62232C424.61 4.93914 425.146 5.24784 425.642 5.63777L427.153 6.75071C427.673 7.10815 428.103 7.5712 428.583 7.97738C429.046 8.40793 429.549 8.78975 429.972 9.26092L431.263 10.6582C434.618 14.3544 436.877 18.8549 438.103 23.4854C439.322 28.124 439.444 32.9332 438.607 37.4256C437.762 41.9261 435.902 46.0773 433.424 49.5786C430.947 53.0961 427.843 55.9638 424.48 58.084C421.117 60.2124 417.502 61.5934 413.96 62.3327C413.066 62.4789 412.189 62.617 411.32 62.7551C410.442 62.8364 409.573 62.8688 408.72 62.9257C407.014 63.0232 405.349 62.9095 403.757 62.7226C400.564 62.3327 397.672 61.4472 395.146 60.3505C392.619 59.2376 390.466 57.8972 388.671 56.5243L388.817 56.3781V56.3943L388.931 56.5243L388.777 56.5649C379.792 58.7014 375.348 59.7575 374.617 59.9362L374.625 59.8956Z" fill="#263238"/>
<path d="M398.988 26.1094L403.058 26.0687C403.058 26.0687 403.025 22.6487 406.575 22.5512C408.419 22.5025 409.386 23.7048 409.784 24.6227C410.247 25.6951 410.117 26.9217 409.524 27.9209C408.842 29.0664 407.339 30.1143 404.593 29.6594L404.682 38.8472L408.712 38.8066L408.663 33.4288C408.663 33.4288 414.301 31.9178 414.236 25.6869C414.179 19.7323 408.826 18.4 406.535 18.4244C404.788 18.4406 398.833 18.9199 398.98 26.1094H398.988Z" fill="#002029"/>
<path d="M408.784 40.7066L404.698 40.7458L404.734 44.5638L408.82 44.5246L408.784 40.7066Z" fill="#002029"/>
</g>
<defs>
<clipPath id="clip0_116_437">
<rect width="561.75" height="341.851" fill="white" transform="translate(0.125)"/>
</clipPath>
</defs>
</svg>
